/* XPM */
static char *cceb4744c2d74a81aaf94b1e65b73a8a[] = {
/* columns rows colors chars-per-pixel */
"64 64 226 2 ",
"   c #333E00",
".  c #3A3E03",
"X  c #542E08",
"o  c #6B2502",
"O  c #6C2904",
"+  c #672906",
"@  c #732601",
"#  c #732B05",
"$  c #772A04",
"%  c #6C330D",
"&  c #73340E",
"*  c #7C330A",
"=  c #773A14",
"-  c #663919",
";  c #553E25",
":  c #014C00",
">  c #074B01",
",  c #015300",
"<  c #015D00",
"1  c #0E5306",
"2  c #155909",
"3  c #154D00",
"4  c #2F4401",
"5  c #334A00",
"6  c #2A5813",
"7  c #2D5412",
"8  c #026301",
"9  c #0B6805",
"0  c #156408",
"q  c #0D7509",
"w  c #127B0D",
"e  c #286814",
"r  c #396412",
"t  c #3F7522",
"y  c #41551D",
"u  c #72411D",
"i  c #416415",
"p  c #71750D",
"a  c #56432A",
"s  c #5B462B",
"d  c #5E4A2C",
"f  c #564729",
"g  c #4A5923",
"h  c #56532E",
"j  c #624C2E",
"k  c #694727",
"l  c #784B26",
"z  c #64512F",
"x  c #69502E",
"c  c #7D542C",
"v  c #7F582D",
"b  c #634E31",
"n  c #684F32",
"m  c #655132",
"M  c #6A5434",
"N  c #6D5936",
"B  c #6D5638",
"V  c #6E5939",
"C  c #655138",
"Z  c #715635",
"A  c #725B36",
"S  c #745C3A",
"D  c #795F3D",
"F  c #785936",
"G  c #466722",
"H  c #58672C",
"J  c #57762E",
"K  c #63672D",
"L  c #686B33",
"P  c #76613B",
"I  c #7C633D",
"U  c #7C6B3D",
"Y  c #697635",
"T  c #74753B",
"R  c #745D40",
"E  c #7D6541",
"W  c #7E6941",
"Q  c #776440",
"!  c #843106",
"~  c #8B3507",
"^  c #9E3502",
"/  c #9E3A02",
"(  c #943A07",
")  c #842E04",
"_  c #A23601",
"`  c #A33B03",
"'  c #A93E04",
"]  c #A23E09",
"[  c #93430A",
"{  c #9C430D",
"}  c #9A490B",
"|  c #874216",
" . c #9B4715",
".. c #AB4206",
"X. c #A5480B",
"o. c #B54D08",
"O. c #BC5D0D",
"+. c #B6560B",
"@. c #A85010",
"#. c #BC630F",
"$. c #AF650C",
"%. c #814C21",
"&. c #8B592E",
"*. c #826C3F",
"=. c #88663D",
"-. c #916232",
";. c #9D6739",
":. c #82763F",
">. c #C25D0C",
",. c #C65807",
"<. c #C5630D",
"1. c #CA650D",
"2. c #CB6A0E",
"3. c #D36C0E",
"4. c #D86A0D",
"5. c #CA6611",
"6. c #CE6B11",
"7. c #C66918",
"8. c #D26C11",
"9. c #D86F10",
"0. c #D97218",
"q. c #E3760D",
"w. c #EA7B0D",
"e. c #E6790E",
"r. c #E77B13",
"t. c #F17A0E",
"y. c #D27122",
"u. c #816643",
"i. c #846B44",
"p. c #8A6D44",
"a. c #866C48",
"s. c #8A6E49",
"d. c #966D45",
"f. c #877043",
"g. c #8B7245",
"h. c #8E7349",
"j. c #8D7949",
"k. c #917546",
"l. c #927649",
"z. c #93764A",
"x. c #99764D",
"c. c #967A4C",
"v. c #95794C",
"b. c #9A7B4E",
"n. c #957647",
"m. c #957650",
"M. c #967A50",
"N. c #9E7E51",
"B. c #9C7D51",
"V. c #8E7450",
"C. c #A17A4C",
"Z. c #A17E53",
"A. c #A06E40",
"S. c #15890E",
"D. c #168C12",
"F. c #1C8D15",
"G. c #188414",
"H. c #0E9511",
"J. c #1C9415",
"K. c #1D9418",
"L. c #199616",
"P. c #0F8B16",
"I. c #298919",
"U. c #219317",
"Y. c #219419",
"T. c #229A1C",
"R. c #34881D",
"E. c #27A21F",
"W. c #299C21",
"Q. c #399527",
"!. c #3B8B23",
"~. c #2BA422",
"^. c #2DAB25",
"/. c #29A825",
"(. c #32AC28",
"). c #34A928",
"_. c #2EB32B",
"`. c #2BB92B",
"'. c #32B42C",
"]. c #33B92D",
"[. c #61871A",
"{. c #448C25",
"}. c #568D2F",
"|. c #769320",
" X c #6B8537",
".X c #75833D",
"XX c #51A432",
"oX c #48AB2C",
"OX c #7B8841",
"+X c #FE8C0D",
"@X c #F9860B",
"#X c #FE8D12",
"$X c #F88814",
"%X c #FF9015",
"&X c #F28612",
"*X c #DD873A",
"=X c #E48428",
"-X c #FC982C",
";X c #E28E3E",
":X c #ED9238",
">X c #F89B38",
",X c #FEA23D",
"<X c #FDA037",
"1X c #99804F",
"2X c #9E8153",
"3X c #848947",
"4X c #A28255",
"5X c #A38355",
"6X c #A58559",
"7X c #A9855A",
"8X c #A9895A",
"9X c #A78859",
"0X c #B0855D",
"qX c #FEA444",
"wX c #FFA945",
"eX c #FEA649",
"rX c #FEAA4B",
"tX c #FDAC53",
"yX c #FEB15B",
"uX c #FEB362",
"iX c #FEBC75",
"pX c #FFBF7A",
"aX c #FDB771",
"sX c #ED9641",
"dX c #FFC17E",
"fX c #FEC282",
/* pixels */
"b.c.c.b.4X2Xf.v.b.b.b.N.z.h.g.g.g.g.g.g.g.h.E m g.b.c.b.b.5Xc.f.b.b.c.b.B.v.g.f.f.f.f.f.f.f.h.S b v.b.b.b.N.5Xh.k.N.b.N.N.b.b.g.",
"b.N.N.N.4X2Xf.l.v.c.h.p.N.b.l.l.l.l.l.l.l.l.g.D l.b.N.N.N.5Xb.f.l.v.v.g.h.4Xb.v.c.c.c.v.c.v.c.a.=.b.N.2X2X4X5Xk.g.c.c.l.u.z.4Xb.",
"b.4X6X4X6XN.g.g.g.h.S j 2X6X5X5X4X5X4X4X4X4X5X6XN.N.6X4X4X6Xb.g.g.g.g.M A 5X5X6X4X4X4X4X4X4X4X4X4Xb.N.2XB.2X2Xh.f.f.g.U d a.5X2X",
"m m M M M M M M M N j s M M M M M A A A A A M M m m M M M M M M M M M d d M M M j b M M M M M b d d j d b b b m m m m m s d j b ",
"m m b s j m A A A A M M x x m m M A M M A A Z m m m m j s j M A A A Z M m n n m m S E S I E I D S S S S j j M I I I I D S F A S ",
"5X9Xz.b u.l.4X4X4XN.b.b.N.4X5X5X6X6Xl.v.6X5X5X5X6X5X8Xi.b i.c.6X5X4Xb.b.b.N.4X5X5X6X5Xk.N.8X5X6X9X5X9X8XM N j.2X6X6X4Xb.Z.Z.2X6X",
"l.l.l.h.l.b.4Xc.l.k.k.l.S s.5Xl.l.l.h.h.l.l.l.l.z.z.z.z.z.x.B.Z.b.v.z.l.s.S z.4Xl.z.h.g.g.h.h.h.h.h.h.h.z.v.b.N.v.h.h.g.h.E B B.",
"g.g.v.6XB.c.b.k.f.f.g.g.M i.4Xg.g.g.g.g.h.g.g.g.g..X XOX3XOXOXOXT Y Y :.i.M k.4Xg.g.g.f.h.l.h.h.g.g.k.l.5X4Xv.c.l.g.f.g.l.i.S B.",
"Z.6X7X9Xc.g.g.h.h.g.c.Z.B.Z.Z.Z.Z.Z.v.b.8X4XZ.Z.2XoX'.'.'.'.'.(.U.U.U. XZ.N.Z.Z.4X4XN.g.B.6XN.N.N.N.4X6X6XB.h.g.g.g.g.h.N.B.N.N.",
"E I E E A V S S S P E E I I S S S S S E E S D E I )._.'.'.'.'.^.K.K.K.J u.E D S S S S S S A m M A A V M B M m M N N N A S A A M ",
"m j d d d j m m m m m m m j j j j j n M m j j m x )._._._._._.^.K.K.K.G b m j d j j j m m M z m N N M j j j m M M M m b M M M m ",
"N.4Xc.*.b.B.p.f.u.j P g.p.k.b.B.2X4X4X2X2XZ.4X5X2X}.Q.Q.W.T.T.T.~.^.^.R.6 e r v.4XB.}.oXXXXX{.{.{.3X5X4Xg.l.5Xl.f.h.S m g.f.f.b.",
"5X5X4Xb.4XN.f.l.c.u.h.v.g.g.l.c.c.c.N.2XN.b.h.u.M.4X2Xb.}.L.K.T.'.'.].F.< 8 0 h.b.g.Q.`.'.^.K.J.J.OX7X5XN.N.6Xh.g.N.l.a.c.k.g.l.",
"2X4X4X5X5XN.p.b.5XN.N.b.g.f.f.g.g.f.b.Z.C.z.u.j s.9X5X7X XL.K.T.'.'.].F.8 8 0 p.l.i.Q.].'.(.Y.Y.Y..XZ.2X4X5X4Xh.h.5X4XN.b.v.g.h.",
"h.h.c.6X9X4Xg.N.6X5Xc.g.N.4X9X6X5X5X3XOXOXOXOX X.XL K L {.L.K.T.'.'.].F.8 8 0  X.XY Q.'.'.^.G.G.w Y k.h.5X6X6Xl.l.6X6X5Xg.v.4X6X",
"E I I i.g.a.S u.s.s.u.I u.u.E u.a.u.R.J.U.E.'.'.).8 < < w K.L.T._._.].F.< 8 8 F.U.F.~.'.'.~.8 8 8 H D V E E a.S S u.u.u.P P I R ",
"B d d s M M s j m m b b d a ; a d f I.J.U.E.'.'.(.8 8 8 w L.L.T._._.].F.< 8 8 D.K.F.E.'.'.~.8 8 8 g m d d j Z j j m m m M b j ; ",
"g.i.a.B.B.B.v.f.f.B.N.B.b.b.b.B.B.v.I.H.D.K._._.(.8 8 8 S.K.K.T.^.(.'.F.< 8 8 D.K.F.E._._.~.< < < K g.p.N.4X4Xb.c.p.c.4X4XB.B.2X",
"W g.b.5XB.b.v.k.h.N.B.N.4X4X2X4X4X5XJ t J R.J.Y.U.8 8 < D._.(.~.9 9 9 w S.S.F.^.^.(.W.Y.Y.I.G G G N i.v.Z.N.c.l.l.f.l.b.c.B.4Xc.",
"b z.N.b.g.f.f.g.g.g.f.p.c.v.p.v.b.4Xz.v.7X XD.F.F.8 8 < F.].].~.8 8 < q L.J.Y._.'.].~.F.L.!.5X5Xb.b E B.B.z.p.g.g.g.g.a.p.l.B.g.",
"i.h.l.l.c.b.N.I S 2X2X4XN.Z.4X4X5X6Xv.j.7X XH.L.L.8 8 < P.`.`./.8 8 8 q L.J.Y._.'.'.~.K.L.Q.9XZ.k.a.g.k.k.l.B.b.b.M a.6X4X4XN.6X",
"u.u.W E a.h.h.A M z.h.h.a.s.h.h.h.h.W I s.K r r i p p p p |.|.[.9 8 8 9 w w w E.~.~.G.9 q e H H G P I I I I u.i.u.j P g.i.u.u.a.",
"b b b j j j b b b b d a s s a a s b b b f - @ o $ @X#X#Xt.1.4.$.0 8 8 8 < < < D.F.Y.0 : : : < < < g m z m m m b m m m b s s s s ",
"E I u.h.k.p.I a.h.I I I b M p.p.p.p.k.B.2Xc o + # @X+X+Xe.<.2.$.9 8 8 8 8 8 8 L.K.T.q : , , 8 8 8 H a.p.m.B.B.g.p.B.h.u.p.S d g.",
"k.g.v.5X9X4Xf.b.5Xk.h.l.F I N.b.N.b.Z.Z.4X&.@ # * &X+X#Xr.5.8.$.0 9 9 8 8 8 8 D.F.K.9 : , , 8 8 8 H k.g.b.5X6Xl.g.5Xb.h.v.i.A l.",
"b.b.b.b.4X2Xf.v.N.B.N.N.b.z.g.f.g.p. .] / >.@X&X&X<XqXqXqXqXeX:X#.#.7.[ + + X > : : , 8 < 8 D.F.F.0 2 0 G b.4Xl.f.b.B.b.b.N.N.g.",
"b.4X5X4X5X4Xf.l.l.l.p.S B.4Xb.N.2Xb.{ _ _ ,.#X#X#X,XeXeXeXeXrX>X8.6.8.X.o @ O > , : < 8 8 9 J.J.J.q 8 8 e 5X6Xl.f.l.l.h.A a.5X4X",
"z.B.B.B.B.M.p.p.p.g.S d V.B.B.B.2XB. .` _ ,.+X+X+X<XqX,XqXeXrX>X6.<.2.} + o + : , , < 8 8 9 L.J.K.q 8 8 e z.m.a.*.W *.I d S z.z.",
"s s s d s d m j z m j a d s s s d j ( ` _ 5.-X-X-XyXuXuXtXqXeXqX&Xq.r.>.} } [ .     3 < , < q w w 8 , < 1 7 7 7 h b j j s s a a ",
"I =.S d M A u.u.u.u.I I I I I I u.=.{ ` _ y.rXeXrXpXdXfXuXqXeXqX%X+X#Xr.6.8.5.# o $   , : , < 8 8 , : : , 8 8 8 L z.a.p.u.i.i.a.",
"5X9Xz.M i.v.5X5X4XN.b.N.b.N.9X6X6X4X ._ ^ 7.wXqXqXiXpXdXyX,XeX,X#X+X+Xe.1.2.<.# O $   , : , 8 8 8 , : : , 8 8 8 T 9XN.b.b.b.z.6X",
"g.f.l.2XB.B.N.z.g.g.f.g.m I 5Xd.=.=.{ .._ y.rXeXrXiXpXdXyX>X,X>X$X@X@Xq.<.<.O.# O @   , , , 8 8 8 , : : , < 8 8 T k.g.g.h.I j B.",
"l.v.b.6Xb.l.v.h.g.g.h.l.I a.A.{ { X.O.<.>.*XiXaXiXpXdXfXeX#X%X$X9.3.9.,.......# O @ 5 8 8 8 8 8 8 G U T T T L Y g.g.g.g.v.h.i.N.",
"N.5X6X6Xz.f.g.g.g.f.l.N.N.2X;._ ` ' <.6.1.;XfXpXpXdXpXfXqX+X+X+X3.1.2.o.^ _ / # O @ 5 8 8 8 8 8 8 L 7X6X7XZ.g.g.g.g.f.g.b.B.B.B.",
"M n n n b j M M M N N B M M l ` ` ' >.1.,.;XdXiXpXdXdXfXeX+X+X+X3.2.2.o._ ` / O O @ 4 8 < 8 8 8 8 y b d d d s b m m m M M m m j ",
"I S S M A S A A A m M S A S l ` ` ' 0.=X0.sXuXuXuXrXrXtX-Xw.w.e.3.2.6.X.! ! * . 4   7 t G 6 8 8 8 H i.E S A I I P P M m S P P I ",
"6X6X4Xg.2X5Xg.g.g.z S h.g.c.;._ ` ' :XrXeXeXqXqXqX+X+X+Xe.1.1.2.2.2.6.} + O + > , : H 0X7XH < 8 8 Y 7X6Xv.l.8Xv.g.l.I M h.h.g.b.",
"5X4X4XN.4X4Xf.v.N.k.v.b.g.g.-._ _ ` :XwXqXeXeXeXqX#X+X+Xe.1.2.2.2.2.6.X.o o + > : : g Z.N.g < 8 < Y 9X4X4X4X5Xl.f.4XN.c.b.v.p.g.",
"2XB.N.5X5X4Xf.c.5XZ.b.v.k.g.-._ _ ` :XwXeXqX,XqX<X+X+X+Xe.<.<.<.<.#.<.@.& & % 6 2 1 K Z.Z.H 2 0 0 L N.b.4X5X5Xl.g.5X4XN.v.v.l.v.",
"g.g.l.5X5X4Xg.c.5X6Xb. .] X.o.<.<.5.>XeXeX-X#X%X$X9.3.9.,.` ' ` ! # $ %.f.v.b.M.M.v.2X4X4XB.1Xj.U f.g.f.B.4X4Xl.g.4X4X4Xp.l.N.4X",
"S M m M S D m M S S V ( _ ` o.2.2.8.>XqXeX-X+X#X+X1.1.2.o.^ _ / # O o - B m s a C M n B V V A V M A B b b M S M b V V M M m b a ",
"S m j m N S z m M N N | _ ` o.<.<.1.>XwXwX-X+X+X+X3.2.3.+._ ` / $ o o u I S M b A S A A P I A N A S F M A S E S Z A S I I E I S ",
"h.g.h.5X5X5XN.l.g.4X5X ._ ` o.e.q.q.=X=X=Xr.q.e.q.X.} } ( ) ! ~ %.&.&.d.6X6X5X8X6X6X6Xh.M.6Xh.g.g.g.g.g.2X6X5XZ.N.g.B.6X5X6X9X8X",
"M s.N.N.c.h.h.h.g.l.h. ._ ` ,.#X#X#X4.<.1.1.5.5.<.O o o + O o & p.j.v.l.k.N.v.h.B.2X4Xh.M.5XN.N.b.N S N.N.b.g.g.g.g.g.f.g.v.N.l.",
"M a.b.c.h.g.h.i.W z.h. ._ ^ ,.+X+X+X9.2.2.2.2.2.<.@ o o o o o # I p.k.k.l.b.v.l.B.2X4Xh.M.5X5XN.l.P I v.v.v.k.k.g.I g.l.l.b.N.c.",
"g.g.g.g.c.N.4X=.k d.A.@.....,.@X@X&X1.>.<.O.O.O.+.& & & & = = | Z S 6X6X5XN.4X6X5X5X6Xh.v.6X6XB.f.g.g.f.f.h.b.N.z.j u.6X4XN.v.5X",
"V N A N A S S l ^ ` _ 4.@X&Xr.3.3.5...` ' ~ # # # k N M M A Z A m m R A Z B B V B S S V V V A M b M M M M M M M B j m B b n m m ",
"m m M M M M m l _ ` ' q.+X#X&X1.2.1..._ ` ~ + O o k M M M M M m M M m j d s d j j j m M m j d d j N N N S S S N N D A N m b d M ",
"f.f.k.4X4XZ.h.-._ ` ` q.+X+Xw.1.2.1.../ ` ~ o @ o F g.z.4X4XB.f.B.B.a.g.i.b u.N.b.B.N.4X4X4Xg.g.g.g.g.f.N.6X6Xl.g.6Xb.f.h.I j c.",
"l.k.c.N.4X4Xg.-._ ` ` 1.q.q.<.( [ [ ! ! ) * c k c k.l.b.Z.5XN.g.B.N.v.v.l.i.g.l.l.l.l.c.c.v.h.i.S k.c.z.B.N.5Xl.g.N.b.c.b.l.a.h.",
"N.b.b.b.4X2Xg.-._ ` ` O.5.5.@.+ + + O O o = i.B h.Z.b.b.b.4Xb.f.l.b.b.z.v.Z.v.g.h.g.g.g.g.g.h.u.M l.N.N.b.N.5Xl.g.c.c.c.g.z.2Xl.",
"N.4X6X6X8X5Xh.-./ ` ` >.2.6.@.o O O O O o = 5X6X4X4X6X6X6X8X2Xg.h.h.h.A M 5X9X6X6X6X6X6X6X6X9X5X6XZ.4X6X6X6X6Xc.g.h.h.g.j u.8X6X",
"i.s.s.u.u.E Q c ( ( ( @.+.+.} + % % % % O u u.u.E E u.u.u.u.E P P P P m b E u.E E u.u.u.u.a.i.u.u.E E D S S S S S S S A d m S S ",
"s s s s s s m k # # # # # # + ; j m m m m m b s d d s s s s d m m m m j d s s s s j m b m m m b s d s s s s d m M M M m b j j b ",
"z.M.h.b P f.2X=.o O O O O O + p.4XN.h.f.N.N.N.N.N.N.4Xi.d E h.B.N.N.x.v.v.x.b.B.b.N.N.f.l.2XN.N.N.N.N.Z.A m f.b.4X4XN.b.b.b.B.Z.",
"N.2Xc.I a.c.6X=.o O o o O o O p.2XB.l.h.b.b.B.B.b.b.b.l.u.l.b.4XB.c.v.v.z.u.z.5XB.b.b.h.l.B.b.b.b.B.b.b.s.a.v.b.N.v.v.k.l.s.D B.",
"p.f.g.6X2XB.N.p.v v v v k l d.g.f.f.g.g.g.f.f.g.g.g.p.l.9XN.B.B.g.f.g.g.i.j u.6Xa.f.f.g.f.g.f.f.f.f.f.*.N.5Xb.b.v.f.f.f.g.U j z.",
"b.N.4X6Xb.h.l.l.j.j.c.2XM.B.5XN.b.N.v.l.6XN.b.b.b.B.4X6X6Xv.h.h.h.h.g.b.b.v.b.2XN.N.b.g.v.4XN.b.N.N.N.5X5X4Xh.h.h.h.h.h.b.N.b.2X",
"h.z.m.m.i.I u.u.E I u.a.a.a.i.i.i.a.u.u.h.a.i.s.a.s.s.s.s.I I E E I I i.a.g.i.u.i.a.i.E i.h.i.i.a.a.s.h.s.a.P P I I I I u.u.u.u.",
"j s s s a s j z z m b z m j s s s s d m m d s m m m s s s s d m b m m m b m d s s s s b z j s d b m j s s s s b m m m b m m m j ",
"h.h.p.I i.a.I I W z A i.*.p.k.z.c.z.z.B.B.c.c.b.c.z.z.h.U z.k.u.u.I d I p.*.p.k.z.m.m.m.x.c.z.c.b.c.z.z.p.*.z.g.*.f.P d u.f.p.l.",
"5X9X5Xk.2X6Xg.h.h.A u.v.g.k.b.N.2X2X4X4X4X2X2Xc.B.5X9X2Xl.5X4Xg.l.g.A p.l.g.l.B.2X2X2X4X4X4X4XB.M.4X5X6Xc.v.6Xv.g.B.a.I l.k.g.v.",
"4X4X4X4X4X2Xf.c.4XN.N.b.g.g.g.f.f.p.v.N.b.h.p.j u.9X4X4X4X5XB.f.N.4XN.N.b.g.g.f.f.f.g.b.b.b.g.I b M.5X4X4X4X5Xl.g.4X4XN.N.c.f.g.",
"c.v.c.4X4X4Xf.c.5X4Xb.h.v.v.b.b.b.B.N.4X4XN.v.E i.v.l.v.4X5XB.f.B.4X4Xv.k.v.b.b.b.b.N.2X4X2X2Xh.I h.v.l.N.4X5Xl.f.2X4X2Xl.l.b.N."
};
