/* XPM */
static char *_4ba13439a0b4480acff9933f67a5f84s1XU2Zh0fktBKvMU[] = {
/* columns rows colors chars-per-pixel */
"64 64 217 2 ",
"   c #2F2C24",
".  c #372E25",
"X  c #392C25",
"o  c #3C2F2C",
"O  c #3B3126",
"+  c #34332D",
"@  c #3D342C",
"#  c #3D392E",
"$  c #363227",
"%  c #392F30",
"&  c #3D3232",
"*  c #3D3B34",
"=  c #373735",
"-  c #4F330E",
";  c #53350F",
":  c #4E3B1E",
">  c #4D3916",
",  c #543615",
"<  c #563915",
"1  c #593C16",
"2  c #53361A",
"3  c #553B1C",
"4  c #5A3C1C",
"5  c #583718",
"6  c #463627",
"7  c #4C3724",
"8  c #473925",
"9  c #4C3B24",
"0  c #44362A",
"q  c #4A3728",
"w  c #443A2C",
"e  c #4C3C2C",
"r  c #543C22",
"t  c #5A3E22",
"y  c #523E2C",
"u  c #5D3E29",
"i  c #443C32",
"p  c #4B3E31",
"a  c #483F38",
"s  c #513D30",
"d  c #613E24",
"f  c #3F403B",
"g  c #5D4116",
"h  c #56431D",
"j  c #5C421D",
"k  c #5F481C",
"l  c #61451D",
"z  c #63491E",
"x  c #69491E",
"c  c #4D412E",
"v  c #564324",
"b  c #5C4323",
"n  c #5D4A26",
"m  c #54432B",
"M  c #5C452A",
"N  c #5D4B2B",
"B  c #5F532B",
"V  c #464032",
"C  c #4C4234",
"Z  c #44433A",
"A  c #4E453A",
"S  c #534532",
"D  c #594632",
"F  c #554835",
"G  c #5C4B34",
"H  c #544439",
"J  c #554A39",
"K  c #5C4D3A",
"L  c #5E5036",
"P  c #5D513B",
"I  c #624623",
"U  c #644A25",
"Y  c #694C25",
"T  c #614629",
"R  c #654C2B",
"E  c #6A4E2B",
"W  c #714E2C",
"Q  c #655025",
"!  c #6A5126",
"~  c #64512D",
"^  c #6C512D",
"/  c #72532D",
"(  c #7A562D",
")  c #75592E",
"_  c #7B592F",
"`  c #644E33",
"'  c #6A4E31",
"]  c #624E3A",
"[  c #724F31",
"{  c #645134",
"}  c #6E5235",
"|  c #6C5332",
" . c #6E5932",
".. c #64523B",
"X. c #6B553B",
"o. c #66593D",
"O. c #6D593A",
"+. c #675837",
"@. c #715232",
"#. c #735632",
"$. c #725535",
"%. c #745636",
"&. c #735533",
"*. c #795634",
"=. c #765931",
"-. c #775935",
";. c #765A36",
":. c #755A34",
">. c #7A5A33",
",. c #795D35",
"<. c #7B5C35",
"1. c #765739",
"2. c #735639",
"3. c #7A5739",
"4. c #735A3A",
"5. c #765939",
"6. c #745B3B",
"7. c #795A39",
"8. c #7A5D3A",
"9. c #795A3C",
"0. c #7C5D3A",
"q. c #6F603F",
"w. c #7D6135",
"e. c #76613E",
"r. c #7D6139",
"t. c #7C613B",
"y. c #776037",
"u. c #584E42",
"i. c #595143",
"p. c #53524D",
"a. c #555651",
"s. c #645542",
"d. c #6A5741",
"f. c #635947",
"g. c #6C5B44",
"h. c #665B4A",
"j. c #6B5D4B",
"k. c #625449",
"l. c #745D44",
"z. c #7A5E41",
"x. c #725E4B",
"c. c #645E54",
"v. c #6B5D52",
"b. c #685E5C",
"n. c #725F50",
"m. c #6E624C",
"M. c #756244",
"N. c #7A6243",
"B. c #74624B",
"V. c #79634B",
"C. c #7C684A",
"Z. c #6D6254",
"A. c #6D645A",
"S. c #68645B",
"D. c #736454",
"F. c #746855",
"G. c #7B6A53",
"H. c #74655B",
"J. c #746A5B",
"K. c #7C6B5C",
"L. c #786557",
"P. c #7F735D",
"I. c #6C6561",
"U. c #6F6862",
"Y. c #756C62",
"T. c #7B6C62",
"R. c #796F6D",
"E. c #756B6A",
"W. c #7D7568",
"Q. c #7D7675",
"!. c #815B2F",
"~. c #815E34",
"^. c #815E39",
"/. c #816035",
"(. c #82613A",
"). c #89653A",
"_. c #816441",
"`. c #80694A",
"'. c #816C57",
"]. c #81715E",
"[. c #8C7557",
"{. c #806F67",
"}. c #847664",
"|. c #81776A",
" X c #857A6D",
".X c #897E6B",
"XX c #847A74",
"oX c #897D72",
"OX c #837D7D",
"+X c #807778",
"@X c #8D826D",
"#X c #96836D",
"$X c #8B8374",
"%X c #8C837B",
"&X c #948574",
"*X c #978976",
"=X c #92877D",
"-X c #938B7D",
";X c #9C8C7B",
":X c #9F907D",
">X c #A0917C",
",X c #958C84",
"<X c #998D82",
"1X c #9E9384",
"2X c #9A968A",
"3X c #9A958C",
"4X c #9F9C93",
"5X c #A19582",
"6X c #AB9C8B",
"7X c #A19F95",
"8X c #B3A18B",
"9X c #A4A095",
"0X c #A5A29A",
"qX c #AAA69B",
"wX c #AFA291",
"eX c #B3A292",
"rX c #B8AD9B",
/* pixels */
"4.T E T ;.5.;.;.%.7.%.$.3 3 2 t 2.9.z.2.} } } } b b b b I Y U U ^ ^ | | M b b b #.:.,.#.U Y E R 4 3 4 4 2.2.9.2.@.@.| ^ R R R ~ ",
"4.T E T ;.5.;.;.7.8.5.5.3 3 2 3 %.7.9.2.| | | | b b b b I Y Y U ^ ^ $.| M b T b #.:.,.#.Y Y E R 3 2 4 4 2.5.9.6.| @.| E R R R ~ ",
"4.T E T ;.5.;.;.7.8.5.%.3 3 2 3 %.7.7.%.} | } | b b b b T R Y Y ^ ^ } | M b b b #.:.,.:.Y Y E E 3 2 3 4 2.2.9.2.| @.^ E R T R R ",
"4.T E T ;.5.;.;.#.%.$.$.3 3 3 t %.7.7.%.$.} } } b b b b R E E R E R ^ R t 3 t 4 ;.,.,.:.Y Y E Y 3 2 4 t 5.2.5.%.$.$.#.^ R U R R ",
"4.T E T ;.;.;.;./ @.| | 3 3 3 3 #.>.7.;.%.5.5.4.b b b T ' | | E U T E R r 2 3 3 8.,.r.:.Y U E Y 3 2 3 3 5.5.7.%.2.7.;.#.R T R E ",
"4.T E T ;.;.;.;./ / E | 2 3 2 3 #.>.,.:.;.7.7.4.b b b T ' } } ^ U U E R 3 2 3 3 r.r.(.>.Y U E Y 2 2 3 3 5.5.8.7.7.9.8.$.E U Y ^ ",
"4.T E T ;.;.;.;.^ ^ E E 3 4 3 3 :.>.,.:.;.7.5.$.b b t b ' } } E R U E R 3 2 3 3 r.r.t.>.Y Y E Y 3 2 3 3 5.5.7.%.;.7.7.$.E U U ^ ",
"4.T E T ;.;.;.;.E E Y E 3 b t b >.>.>.:.:.;.4.| b t 3 b R } | E U U E Y 3 2 3 3 ,.,.t.>.! E ^ E b 3 j 3 4.$.%.@.#.;.7.#.E U U ^ ",
":.T ^ U 8.r.0.r.^ U U Y b b b b ,./.r.,.:.4.4.4.3 2 3 3 | ' } | U Q E T t 2 3 4 ,.r.(.>./ ^ ^ | b b b T R | ^ ^ *.7.7.#.E U U E ",
":.T ^ U 8.t.0.0.E U U Y I b T b >.>.r.>.:.4.4.4.2 2 2 2 | ' | ^ U ^ ^ T t 2 3 4 ;.r.r.) / ^ ^ ^ b b b T E | @.@.%.7.7.#.E U Y E ",
":.T ^ U 8.r.0.0.Y I U Y b b b b ,.(.(.,.;.;.5.4.3 2 3 2 | | @.^ I U U I 3 2 3 3 ,.r.r.) / / / ^ b b b T E ^ / ^ #.7.7.#.E U Y ^ ",
"4.T ^ U ,.r.0.0./ Y E E b j b b ,.(.(.,.;.4.$.} b 3 b j 4.4.5.#.I U U T b 3 3 j ,.t.w.>.) #.#.#.b v j b U E E E 7.0.0.*.E Y Y Y ",
"4.T ^ U ,.r.r.r.:.^ / ^ I b b b ,.0.0.:./ ^ | R b b b b 8.8.t.,.U U R Y b b b I ,.t.w.w.:.:.;.#.b j j b T R Y U 0.^.(.>.^ Y Y Y ",
"4.T ^ U ,.r.r.r./ E ^ ^ b j b b 0.(.r.7.#.^ | ^ b j b j t.t.r.,.U U U T b b b j ,.r.w.) :.:.;.$.n j j n T R Y Y 0.(.(.>.^ Y Y Y ",
"4.I E U ,.r.r.r./ E ^ ^ b 4 b b 8.(.t.7.#.| | ^ b j j j t.y.r.,.! Q U T b b j g ,.w.w.>.>.,.7.4.j h h b T R E Y 7.0.<.>.E Y Y Y ",
":.I ! U ,.r.r.r.,.#.:.#.U j b b #.;.;.#.E ^ E R j 3 4 g ,.,.r.,.) / ^ E Y b j g ,.r.r.>.>.0.8.5.h h h j T R E Y :.7.7.#.E U Y E ",
",.z Y U ,.y.,.t.t.t.t.,.g l g l ^ O.} R R Y I U 1 < ; 4 #.t.8.8.t._.t.t.I I l l y.t.y.,.t.t.5.7.4 , , 4 T R R R ~ ^ R | b Y Y E ",
":.l R T y.e.6.e.e.N.7.t.l l l l R o.+.{ { ^ R ^ 1 < , 4 %.N.z.z.z.N.z.8.I I j j / ,.;.5.N.N.8.N.4 2 3 b T R R ~ O.O.{ O.n ' R R ",
"l.R { ` M.B.B.B.M.M.l.M.b b b b o.j.s.G ` N M M b t 2 b l.V.V.l.l.V.l.M.M b b b N.`.V.M.C.V.l.l.t r r v N G G G L L K d.D ....X.",
"K 9 m e K K K K j.B.B.B.m v r m S J H F s.g.d.d.9 r 7 r G ] G ] B.V.B.B.M M m M G G D ..x.L.n.B.y r 9 y m S S S j.Z.j.j.e e e C ",
"C X O . p i w i v.H.H.D.y 7 7 y i i i A v.K.L.D.q e e q e e e S D.D.D.D.S S m S q q 6 S v.H.H.D.s e q e e e e i F.Y.Y.Z.w $ O w ",
"A O @ . a i i i v.J.K.D.y q q y i i w C v.J.F.j.p S p e p e 0 p F.J.F.D.J F H H C p w H Z.T.H.v.s e q e e w w w c.A.A.c.# $ @ i ",
"A O @ O C p i i v.D.D.D.S y e y 0 w w C h.J.F.D.6 q 6 6 e e q e D.D.D.D.F F H F 6 6 6 H v.H.H.D.y e e e e e e C A.J.A.c.# O . @ ",
"i.i C e u.K K K j.j.g.x.m m r y K P K K j.B.j.g.m m e y K ..K K d.g.g.g.m m c m K K K s.j.D.j.g.m r r m m m m F j.Z.Z.Z.V V C C ",
"j.K ..G x.B.B.B.X.{ X.} T b M M M.M.M.M.X.` ` { M v M M M.M.V.M.n N n M v v m m M.V.V.l.l.l.g.O.b M b b ` { ` { l.B.B.j...K K P ",
"g.N { R l.N.N.N.} ^ | | I b I b y.e.e.7.| R R ^ b j b b 8.e.e.7.U U U n b b b b 8.N.N.8.4.4.4.$.j b j j R R T R 8.M.M.O.{ N N { ",
"4.T ^ U 8.t.r.0./ ^ / / l g l g ,.w.r.>./ ^ ^ ^ j g j g 0.<.r.,.Q Q Q U k j j j ;.8.0.7.:.>.>.:.g l g g Y Y U U ,.8.8.#.^ U R ~ ",
";.U E U ,.r.<.<._ / / / z 4 g g _ w./.>.:.) / :.g 1 4 g <.<./.,.! ! ^ U z j j j :.,.<.7.>.>.>._ l l g l ^ / / / #.>.:./ Y U U Y ",
">.I E Y <./.~.~.>.( >.#.I g j l >./././.<.,.,.r.1 < 1 1 >.<.^.<.^ ^ ^ Y I j j I ;.7.<.<.>.~.~.>.l l j U / >.#.*./ / / / E Y Y ! ",
"7.I E Y <.~.~.~.<.>.<.;.U j b I <./.(.(.(.0.t.t.4 < 4 4 0.^.(.0.^ | | E I b b I 2.7.7.>.>././.>.j b b I #.,.*.7.W W / E Y Y Y E ",
"7.I E Y <.^.^.^.<.7.8.5.Y b b b <.~.^.0.0.8.8.8.t 3 4 t 9.0.^.0.| } } ' M b b T 2.2.3.*.<.^.<.>.b b r b 2.6.%.%.W W / W E Y Y Y ",
";.I E Y <.^.^.^.<.*.0.2.T t M M 0.<.<.0.7.5.2.2.3 2 2 3 $.2.2.$.' } } ` M t b T $.2.%.%.7.0.8.4.M M v M } 5.$.&.&.&.&.W E Y U R ",
":.b I ! / /.~.~.~.( <.*.T u M M ,.r.r.>.^ ^ ' R 3 2 2 2 ' R R I | ^ | | b v b j #.Y E %.| 6.l.X.y G m v | ^ U #.#.3.0.&.E T n ~ ",
"e.n R ^ ,.)./.~.~.( <.*.T u M M 8.r.r.:./ ^ E E 3 3 3 2 R T T T ^ ^ | ^ b v b j ^ Y ^ | 6.l.B.x.G G m m |  .^ / *.0.0.%.E U n B ",
"j.m N { $.t.<.>.~.*.7.*.T t M b ,.r.r.,.#.#.@.| 4 4 t 3 E T E E ^ ^ | ^ b v b j 4.#.$.T l.] ] K m e r m N | | ^ *.0.0.%.E U n ~ ",
"T.h.j.x.l.N.0.^.<.*.7.:.T b b b ,.r.r.,.:.;.;.%.4 3 4 3 } | 4.$.| ^ | ^ b v b b R R { N #X#X&X&XK.B.G.V.{ ~ } Y &.*.*.&.E T U ~ ",
"XXY.T.K.V.V.z._.8.:.,.#.T h v b >.r.(.0.<.8.0.0.4 3 3 4 7.0.t.8.| ^ | ^ b v b v ~ ` G ..8XeXeXeX;X&X>X#Xo.N | R E [ &.W Y T U Q ",
"XXY.{.K.x.l.6.z.8.:.,.#.T h v j >./.(.<.<.0.t.t.4 2 3 3 8.(._.t.| ^ | ^ b b b v G G D ..6XeX6X6X:X;X5X@X..m G M ' E W Y Y U U Q ",
"oXH.T.K.V.V.z._.8.:.,.#.I h b j >.~.(.<.<.<.0.0.4 < < 3 ;.,.8.,.| | | ^ b b M m m K K j.1XwXeXrX;X*X*X.Xj.P ..G } $.[ W Y U U R ",
"K.f.g.l.l.N.9.8.0.:.>.:.I j b j ,.~.(.<.>.7.7.*.4 4 4 < ^ ^ :.#.| | | ^ b b M m }.@X|.W. X}.K.}.B.j.Z.F.F.J.].'.2.2.&./ E Y U R ",
"M.m R T 5.8.^.<.7.7.*.7.d I t b >./.(.7./ W E E 4 4 < 4 I U U I | | } | I b M m 5XrXqXqXJ F K D 9 9 O e %X1X;X;Xl.2.7.;.Y U R E ",
"e.n R U ,.0.(.^.>.<.*.7.d I d I 7.(.(.<.&.@.@.| 4 3 , 4 I E E U | ` } | I b M m 1XqX7X0Xi.s...` v m 0 C %X,X=X;XV.l.7.;.E U R R ",
"t.I ! U >.r.(.~.>.<.*.0.d I d u 7.r.(.7.#.| | ' t 3 2 4 I E E R { { } | I t M m -XqX0X9XJ D ` R : 9 8 A %X,X,X<XB.O.4.#.E R E R ",
"t.k U z / ) >.*.>.0.7.9.d d t t $.;.8.;.$.$.$.} b b t b T R R R X...X.| b 4 t y <XqX0X9Xh.X.4.$.3 9 8 C XX%X%XoXj.{ | ^ R R ` ` ",
"e.n U b ^ ^ ^ E 7.0.9.9.t t 3 3 ' #.5.4.2.6.6.8.T b b b T ~ ~ R ..{ } E 4 2 r 9 -X4X3X2XF.C._.,.b 3 9 C R.Q.Q.Y.j...{ ^ R T R N ",
"C.R { n | | | ^ 7.0.z.z.t t 2 2 2.7.8.6.4.6.6.2.M b b b T R ~ ~ ` { | E 4 2 r e =X0X7X2XB.O.7.>.1 > 9 H R.OXOXQ.f.{ { ^ R R ` ` ",
"B.N { N { { | | 8.N.z.z.b t 3 3 X.4.6.4.2.6.6.X.M b b b n n R N ....X.| 4 5 r y =XqX0X3XG.8./.).g 2 m K E.Q.OXXXf...+.| T T ` ` ",
"f.e S c F S K D g.B.B.V.M v r v m D ] ..d.l.B.B.G M m m m M M m j.j.B.X.b 4 t y K.|.J.W.P.[.[.N.4.X.g.k.A.b.I.A.Z.h.d.o.m 9 y s ",
"p.  + + * * i * c.Z.F.D.S D m m V V w C h.J.F.D.S H S c w w w V S.S.J.B.N r b b b M m K $X*X$X%X|. XoX XK J K u.A.A.Y.H.@ X o o ",
"a.+ = = f f Z Z c.A.J.J.K S m S i * * Z c.J.J.F.J J J C V i w i S.I.Y.D.G v b I E E R { .X$XOXQ.Q.XX X}.K G G K Z.S.U.I.& % & & ",
"u.  $ $ # # i w h.F.F.L.M M M M e C i C h.F.L.L.K D S m e e e w A.S.F.m.G b b b b T R o.@X&X=X,XXX X X].X...{ { D.Z.Z.Z.w @ 0 @ ",
"j.0 C c H C F S s.j.g.l.M M b b S J S S s.g.g.g.m v r v m m D S h.h.j.d.N b b j I T R G V.L.F.F.h.f.s.X.R T n n g.j.h.h.c C e e ",
"G.M { G { G { G ` { | } b U I j ` ` G N } } | ' t 3 3 b T ` ` ` ..] X.{ M b b b R R ' M X.` G K 9 9 : 3 T U R R R { { o.N { G ` ",
"N.b R T R b R n R | E | j U z 4 T ' R R ' | E E 4 < , 4 I R E R ' ` } | b b b b T T ' R 2.} 6.X.9 9 2 , Y Y Y U R +.~ +.n { R ^ ",
"_.I ^ R E U E R ^ #.#.#.4 l g j I ' E Y | @.^ / 4 < , 4 I Y Y I @.@.%.| b 4 b b R b ' Y | E @.E r 3 2 - E x x z !  .~  .U Q j U ",
"r.j E Y E U ^ Y ^ ,.8.;.4 4 4 j I | ^ E @.#.@.%.I 4 4 b Y | ^ E *.*.<.#.j 3 t t ' T | ^ ;.#.^.*.3 2 4 < >.( ( _ z ^ U ^ U Q z ! ",
"r.I ! I ^ ^ ^ ^ ,.t.e.e.j 3 3 3 E ^ | | $.7.5.%.I b b I E } $./ <.(.^.<.4 3 2 3 | | | @.7.(.(.<.t 2 4 4 ^.^.).^.Y Y R Y U U Y Y ",
"e.I ~ I ^ ^ ^ ^ ,.e.e.e.b 3 2 3 E ^ | | $.7.5.4.b b b b R | | | <.(.^.0.4 4 2 2 ' ' | #.<.(.(.^.t r 4 4 ^.^.^.~.Y E Y R U U Y Y ",
"N.n ~ U | ^ ^ ^ 7.N.N.N.b 3 2 3 ^ ^ | | 2.6.6.4.n b b b R | | E 7.~.<.<.4 4 3 3 ' | | #.7.(.(.0.t r t 4 ^.^.^.0.' ' R R R U Y Y ",
"N.n ~ n | ^ ^ ^ 7.N.e.z.b r 2 3 | #.$.$.4.6.6.4.R b b b R { ' E / #.#.#.4 4 3 4 } $.$.#.#.:.>.#.t r 4 4 ^.^.^.9.' ' ' R R R U Y ",
"N.n ~ n | ^ ^ ^ ;.t.0.z.t 3 2 3 #.#.7.:.;.7.8.4.T b b b T R E R E ^ ^ | 3 3 2 4 %.5.5.$.| | ^ ^ r 2 3 4 0.^._.0.} } ` ` R R U U ",
"M.n ~ U | ^ ^ ^ 7.0.0.8.4 3 2 3 / >.<.>.;.5.5.4.T b b b T R Y Y ^ | | | 3 3 , , %.7.7.$.| } | | 3 2 3 4 <.^.(.0.} } } { R R U U ",
"M.n ~ T | ^ / / 7.0.0.0.4 4 2 4 / _ >._ #.#.;.4.I b b b I Y Y U | | | } 3 4 3 4 %.7.8.2.| | { { 3 2 3 1 <.<.(.8.} | { { R U U U ",
"M.n R T ^ ^ / / >.^.0.0.4 4 2 4 / ( _ ( / / %.#.b b j b I Y Y U | | } X.t b 4 d &.7.9.$.' R ` ~ h > < 1 >.>.0.7.} } } { ~ U U U "
};
