/* XPM */
static char *f092c7e116894702a215eed6cb286748[] = {
/* columns rows colors chars-per-pixel */
"64 64 160 2 ",
"   c #40331E",
".  c #4F3D26",
"X  c #513F27",
"o  c #4F402B",
"O  c #554227",
"+  c #594427",
"@  c #56432A",
"#  c #5B462B",
"$  c #5E492D",
"%  c #5F4B30",
"&  c #60472B",
"*  c #624C2E",
"=  c #694F2F",
"-  c #63502F",
";  c #69512F",
":  c #634E31",
">  c #684F32",
",  c #655132",
"<  c #6A5434",
"1  c #6E5936",
"2  c #6E5638",
"3  c #6E5939",
"4  c #705736",
"5  c #725B36",
"6  c #715738",
"7  c #745C3A",
"8  c #795F3C",
"9  c #76613B",
"0  c #7B633D",
"q  c #7F693E",
"w  c #745D40",
"e  c #7D6441",
"r  c #7E6941",
"t  c #81663E",
"y  c #836C3F",
"u  c #816643",
"i  c #846B43",
"p  c #896E45",
"a  c #866C49",
"s  c #8A6E49",
"d  c #877143",
"f  c #8B7245",
"g  c #8D7845",
"h  c #8E7349",
"j  c #917546",
"k  c #917549",
"l  c #927449",
"z  c #907749",
"x  c #927749",
"c  c #937749",
"v  c #93744A",
"b  c #93774A",
"n  c #95754B",
"m  c #95774B",
"M  c #97774B",
"N  c #94764C",
"B  c #94774E",
"V  c #93764A",
"C  c #98774D",
"Z  c #927849",
"A  c #93794A",
"S  c #95784B",
"D  c #95794B",
"F  c #957A4B",
"G  c #967A4B",
"H  c #94784C",
"J  c #96784C",
"K  c #97794C",
"L  c #957A4C",
"P  c #977A4C",
"I  c #977B4D",
"U  c #967B4F",
"Y  c #95794C",
"T  c #9A7A4B",
"R  c #98794C",
"E  c #997A4C",
"W  c #987B4D",
"Q  c #9A7B4C",
"!  c #9A7B4D",
"~  c #9B7B4D",
"^  c #99794E",
"/  c #987A4E",
"(  c #997A4E",
")  c #9A7B4E",
"_  c #9C7B4C",
"`  c #9C7B4E",
"'  c #9C7B4F",
"]  c #9E7B4F",
"[  c #987C4D",
"{  c #997C4D",
"}  c #9A7C4E",
"|  c #9B7C4F",
" . c #9C7C4E",
".. c #9C7D4E",
"X. c #9C7D4F",
"o. c #9D7D4F",
"O. c #9C7E4F",
"+. c #9E7E4F",
"@. c #9A7B4E",
"#. c #8E7450",
"$. c #947650",
"%. c #967950",
"&. c #9A7A50",
"*. c #9C7C50",
"=. c #9C7D50",
"-. c #9C7D51",
";. c #9E7D50",
":. c #9D7E51",
">. c #9E7E50",
",. c #9F7E50",
"<. c #9E7E51",
"1. c #9F7E51",
"2. c #9F7F51",
"3. c #9D7E52",
"4. c #9E7F53",
"5. c #9E7F55",
"6. c #9C7D51",
"7. c #A07F53",
"8. c #9F8051",
"9. c #9D8152",
"0. c #9F8052",
"q. c #9E8055",
"w. c #9F8155",
"e. c #9E8153",
"r. c #9F8358",
"t. c #A08152",
"y. c #A08053",
"u. c #A08153",
"i. c #A08054",
"p. c #A08154",
"a. c #A18154",
"s. c #A18155",
"d. c #A38155",
"f. c #A18255",
"g. c #A28354",
"h. c #A28355",
"j. c #A18256",
"k. c #A38356",
"l. c #A28357",
"z. c #A38357",
"x. c #A48355",
"c. c #A38455",
"v. c #A28456",
"b. c #A38456",
"n. c #A28457",
"m. c #A38657",
"M. c #A48457",
"N. c #A58457",
"B. c #A58557",
"V. c #A38355",
"C. c #A88657",
"Z. c #A28358",
"A. c #A38458",
"S. c #A48458",
"D. c #A48559",
"F. c #A5865A",
"G. c #A58559",
"H. c #A88659",
"J. c #A68859",
"K. c #A9895A",
/* pixels */
"E K K | l.0.d m  .E _ ;.N h f f f h h f f g e , f _ K |  .N.K d |  .E _ &.m h d d d d d d d g 7 : S _ E E ;.b.g j ;. .;.;. .E h ",
" .;.;.;.l.0.d k m K h p ;.E k k k k k Z k Z f 8 k  .;.;.;.N.| d k S S f h y.E S K K K S K S K a t E ;.0.0.y.b.j h K K k u N y.E ",
"| l.S.Z.S.;.f f f g 7 * w.S.N.N.l.b.l.l.l.l.z.S.;.;.A.l.l.S.E f f f f < 7 b.N.S.l.l.l.l.l.l.l.l.l.E ;.w.5.w.w.g d d f q $ a b.w.",
", , < < < < < < < 1 * # < < < < < 7 7 7 7 7 < < , , < < < < < < < < < $ $ < < < * : < < < < < : $ $ * $ : : : , , , , , # $ * : ",
", , : # * , 7 7 7 7 < < = ; , , < 7 < < 5 5 4 , , , , * # * < 7 7 7 6 < , > , , , 7 e 7 0 e 0 8 7 7 7 7 * * < 0 0 0 0 8 7 5 5 7 ",
"z.H.N : u Z l.l.l.;. . .;.y.N.N.N.S.k S S.N.N.N.S.z.K.i : p E S.z.l. . . .;.l.z.N.S.N.j ;.K.N.S.H.N.H.J.< 1 g 0.S.S.y. .7.7.0.S.",
"k k k h k E l.K k j j k 7 s N.Z k Z g g Z k k k k Z Z h h N *.;.K k j k s 7 N l.k B h f h g h h h h h g B m E ;.U h h h h e 2 3.",
"h f S S.=.K E j d d h h < u l.h h h f f g h h h h h f E S.| K K h d d g p < l 0.h h h d g k g g h h j k z.y.S K k f d f k i 7 =.",
"7.S.H.H.K h h g g f K 7.5.7.7.7.7.7.m E K.l.7.7.7.7.H.H.S.k g g g g g =.7.;.;.0.7.7.;.h =.S.;.;.;.;.l.S.S.5.h h f f f h ;.5.;.;.",
"e 0 e e 7 3 7 7 7 9 e e 0 0 7 7 7 7 7 e e 7 8 e 0 0 e e 0 7 7 9 9 9 9 0 e e 0 7 7 7 7 7 7 7 , < 7 7 3 < 2 < , < 1 1 1 5 7 7 7 < ",
", * $ $ $ * , , , : , , , * & * * * > < , * * , , ; * $ $ * * , , , : , , , * $ * * * , < < : , 1 7 , * * * , < < < , : < < < , ",
";.y.K y | &.p d u * 9 f p j E 5.w.l.l.0.0.7.y.l.0.;.l.k y ;.S p f 0 * r f p c _ w.7.7.;.7.l.l.l.N.l.l.z.f k z.k d g 7 , f d d | ",
"b.N.y.E l.;.d Z K u h S h h k K K K ;.0.;.E h e &.N.N.0.E N.| p K k u k m f k m K K K ;.y. .K u 0 l.N.z.;.;.A.g h ;.k a K j f k ",
"w.l.l.z.z.;.p E z.;.;.| h d d f f d K E E j 0 $ f b.0.l.l.z.K p l.z.;.;.S d d f d d f E &.E h 9 , =.0.;.l.z.l.g g N.y.;.| m f g ",
"h g K S.H.y.f ;.S.N.K f ;.y.H.S.N.S.S.S.N.N.=.p f k j =.S.H. .d l.S.N.Z Z ;.b.S.N.S.S.S.S.N.N.| f g g g b.S.S.k Z S.S.l.h S y.S.",
"e 0 0 i f a 7 u s s u 0 u u e i i i s s s s p 0 e e 7 e a h u 7 p a a e e u e e a i a s s s s r 9 e 7 7 e e a 7 7 u u u 9 9 0 w ",
"< $ # # < < # * , , : , $ O   @ $ # * , , : , , < < $ # $ < * # , , < < , : X . : * * , < < , , , < - $ $ * 4 * * , , , < : * . ",
"f i f =.5.=.m d d =.;.=.| E E &.&.=.h h 3.a i p d f y h =.5.E k f h l.w.w.;.;.w.5.5.;.f K =.p d d f d p ;.l.l.E K p K l.l.5.5.w.",
"r h E z.5.| S j g ;.=.;.l.y.0.y.l.S.k K N. .K K u 0 Z | l.E S S f g E U | l.=.E 7.l.l.f | b.S E j 0 i K 7.;.K Z k d k | K =.l.K ",
": B ;.E h d d f f f d p K H p S  .Z.k k b.l.l.;.7 , =.=.K d d f f f p p h *.h f E l.l.f | z.z.y.E : e 5.&.N p f f f f a p k &.h ",
"i g k k K E ;.0 7 0.0.l.;.7.l.l.N.S.S Z S.N.l.k f p k h h | ;.;.5 e N.b.l.;.l.b.N.N.S.g ;.H.S.=.g a f j j S =. .E < a S.l.y.;.A.",
"u u r e a h h 7 < B h h a s h h h h r 0 i i u 7 0 0 0 0 0 u i i , 3 f p i u i i i p s 0 u a a e 9 0 0 0 0 0 u i u * 9 f i u u a ",
": : : * * * : : : : $ + # # @ @ # : : : @ # # # * : - , , , - : , , : $ + # # # # $ , , $ # # # # : , - , , , : , , , : # # # # ",
"e 0 u h l p 0 a h 0 0 0 : < p i p p l &.&.a y p i i u h 6.=.v u %.B u p 0 $ t m k k N 6.*.K u p p i i i K 3.&.f p &.h u p 7 $ f ",
"j h S N.H.y.d  .N.j g k 5 0 ;. .;. .y.l.0.k d r f k g E b.S.=.f w.;.j Z f 5 h | E E E 5.w.=.g p u g j j ;.z.S.Z g b.| g S i 5 Z ",
"E E E E y.0.d S ;.&.;.;.E B f d d d d f d f i * i ;.E E E b.E d K *.E _ *.;.k d d d d d d d f 7 * K  .&.E ;.l.k f E ;. ._ ;.;.h ",
"_ y.z.l.N.y.d k k k p 7 =.l. .;.;.;.;.;.;.0.7.N &.y.l.N.N.S.| d k k k 0 u S.l.y.w.0.0.0.0.0.l.=.S ;.y.N.N.N.S.S f k k h 5 a N.l.",
"B =.=.=.5.%.p p p f 7 $ #.5.3.3.3.5.5.5.5.=.K $.h s B B B B a q r y u , < $.B B B N N B B B N K B s h B B v $.p q r y 0 $ 7 N B ",
"# # # $ # $ , * - , * @ # # # # # , , , : : * O @ @ @ @ # @ # : * * : # @ @ O O @ # : : : $ : # @ @ @ @ # # @ $ * * * * # # @ @ ",
"0 t 7 $ < 5 u u u u 0 0 8 0 0 0 u u 0 0 i u i a a p p 7 $ 7 u p p p i i u y i i a a f 0 p h p a p a p a < : 9 i s s a i u i i a ",
"N.H.N < p m N.N.l.;. .;.E ;.C.N.N.b.Z Z N.b.N.N.b.l.S.f 7 h =.N.b.y. . .=.N l.H.l.b.b.j | b.l.l.b.b.b.S.e 7 j ;.S.l.0.|  .E N S.",
"f d k w.=.&.;.N h h d f , 0 S.k d f f f f f f f f f d K l.;.;.=.h f f f r * h b.f f f f d f f d f f f d =.l.&.=.E f f f g 0 * 3.",
"k m E S.| k m g f f g k 0 p l.m k k h g K m k k m K | y.z.m k k h d f Z k i K 0.K S S h Z =.S S S m E | y.l.k Z j f f f S h i ;.",
";.z.A.H.N d f f f d k ;.5.;.&.=.5.5.k k S.5.*.;.;.;.w.Z.5.f d d a f a K &.;.E K &.&.&.h &.Z.&.E &.&.=.l.Z.=.p d p f d f E &.=.&.",
"< > > > : * < < < 1 1 2 < < : : : : , < < : : < < , $ % : # : , , , < , , < : $ $ $ $ , , , $ $ , , , $ : * # : , , , < < , , : ",
"0 7 7 < 7 7 5 5 5 , < 7 5 5 7 7 7 7 0 0 0 7 7 0 0 0 0 7 5 e 0 9 9 1 * 7 9 9 0 0 e e 0 u i u 0 t u u u e 7 5 0 0 9 9 < , 7 9 9 0 ",
"S.S.l.h 0.N.h h f - 7 g f k ;.N.S.S.S.N.N.S.N.S.N.N.S.| g J.| d Z i , a g f S 7.S.S.S.S.N.N.N.b.l.S.N.H.S Z K.S f k 0 < h g f  .",
"b.l.l.;.y.l.d S ;.l m E f f h g g g K ;. .c p < h S.z.l.w.b.S d 0.;.N E Q f f f f f f K | E g e , K S.l.l.l.b.k d l.;.K | m p f ",
"0.=.;.z.z.l.d K z.7. .S j h j h h k E ;.;.m d < f 0.| 0.z.N.E d y.x.7.K S k k Z Z H S ;.;.;.S p 5 B | | l.z.N.k f b.y.;.S m k H ",
"f f k b.N.l.f K z.S.E f E 7.S.S.S.S.S.S.b.S.w.g f f f E S.S.K p w.l.l.Z d &.l.z.Z.l.l.l.l.l.A.=.f f f d =.Z.l.k f l.l.l.p k ;.l.",
"7 < , < 7 8 , < 7 7 3 < < > # , < < 7 7 7 7 7 1 7 7 , , < 7 < * 2 1 3 2 < : # o , : : 2 3 1 3 < < 3 2 : : < 7 < : 3 3 < < , : @ ",
"7 , * , 1 7 - , < 1 3 7 , , : 2 7 7 1 5 0 5 1 5 7 7 < < 5 0 8 5 5 5 0 0 0 7 < : 7 7 7 5 9 0 5 5 5 7 5 < 5 7 e 7 4 5 7 0 0 e 0 7 ",
"g f h b.N.z.;.Z f l.S.A.z.N.J.S.S.S.K Z K.m f f f g f =.H.S.l.;.g k S.S.S.S.N.J.S.S.S.h =.S.g f h f f h w.S.N.7.;.f =.S.N.S.H.K.",
"< s ;.;.K h h h g k h k ;.E g E ;.l.k j N.7.=.E 0 1 K &.*.k g g f g k h k ;.S g | 0.l.h %.z.;.;.E 1 7 ;.;.E f f f f f d f m ;.k ",
"< a | K h g h p u k k l &.&.h E ;.Z.k j z.z.l.E 0 5 E K K h h g u u k l k E m k =.0.l.h %.z.z.;.Z 9 0 U S S j j h 0 f Z m E ;.K ",
"h h h h K ;.y.u , Z.N.N.;.7.S.N.N.S.k Z S.N.0.g h h h h h =.=.;.7 7 S.S.N.;.l.S.N.N.A.g U S.S.=.d f f d d g | ;.N * u S.l.;.S b.",
"3 1 5 1 7 7 7 < : 7 7 6 2 2 7 3 7 7 7 3 3 7 1 , < 3 1 1 1 7 7 7 , , w 7 4 2 2 3 2 7 7 3 3 3 7 < : < < < < < < < 2 * , 2 : > , , ",
", , < < < < , < < , * $ # # * * * , < , * * $ $ * < , < < < , , < < , * $ # $ * * * , < , * $ $ * 1 1 1 7 7 7 1 1 8 5 1 , : # < ",
"d d l l.Z.l.f K l.h a f , 7 ;.E E *.l.l.z.k d f f f p N Z.Z.*.p =.5.a f p : u ;.E =.;.l.b.l.h f f f f d ;.S.S.k f S.E d g 0 * K ",
"k j K ;.l.l.f H ;.S S S p a k j k k Z K K g d 7 a S k E 7.N.;.f =.;.S S Z i f k k k k K K H g i 7 l E N =.;.N.k f ;._ K E k a h ",
";._  .| y.0.f h E _ E B ;.E h f f f f f f g p < s  .| | | l.| d Z E E N m 7.S f g f f f f f h u < k ;.;.| ;.b.k f K K K h N 0.k ",
";.l.S.S.J.b.g g h k 0 * =.K.S.S.S.S.S.S.S.N.H.S.l.y.S.S.S.K.0.f g g h 5 < b.H.S.S.S.S.S.S.S.C.N.S.7.l.S.S.S.S.K f g h f * u K.S.",
"i a s u u e 0 9 9 0 1 $ 9 u u e u u u u u u i u e e u u u u e 9 9 9 9 , : e u e e u u u u u i u u e e 8 7 7 7 7 7 7 7 5 $ , 7 7 ",
"# # # # # # , , , , : $ # # # # $ : : : , , : # # # # # # # $ , , , , * # # # # # * , : , , , : # # # # # # $ , < < < , : * * : ",
"N %.h : 9 d U =.;.N m m N E &.=.;.y.j f ;.;.;.;.;.;.y.p $ e g =.;.;.C m m C E =.;.;.;.d k 0.;.;.;.;.;.7.7 , d E y.l.;.E E _ *.7.",
";.w.K 0 a K l.;.E S S K i h S.=.| =.k h | | | | | | | k u k E l.=.K K S B u N N.&.| | g Z =.| | | =.| | s a S  .;.S m k k s 8 6.",
"p d h S.0.*.*.k d d d f , 7 A.j d d f f f d d f f f p Z H.;.&.&.h d f f p * u A.a d d f d f d d d d d y ;.z.E E S d d d g q * B ",
"E ;.l.S.E h k g g f m ;.N &.y.;.| ;.m Z A.;.| | | =.l.S.S.m g h g g h E  .m | 0.;.;. .h U Z.;.| ;.;.;.b.N.l.h g g g g g  .;. .y.",
"h B $.$.p 0 u u e e u a a a i i i a u u h a i s a s s s s 0 0 e e 0 0 i a f p u i p i e p h i i a a s h s a 9 9 e 0 0 0 u u u u ",
"* # @ # @ # * - - , : - , * # # # # $ , , $ # , , , # # # # $ , : , , , : , $ # # # # : - * # $ : , * # # # # : , < , : , , , * ",
"h h p 0 i a 0 0 r - 7 p y p h B K N N &.&.K K E K N N h q k l u u 0 $ 0 p y p l N $.$.$.C K N K E K N N p y N h y d 9 $ u d p k ",
"N.H.b.j 0.S.h g h 5 u m f j | ;.w.w.l.l.l.0.0.K 5.N.C.0.k N.y.f Z f 5 p k f k =.w.w.w.l.l.l.l.=.%.l.N.S.K S S.m f &.a 0 k j f S ",
"Z.l.l.l.l.0.d S l.;.;. .h f f d d p m ;.E g p * u H.y.l.l.z.=.d ;.l.;.;.E f f d d d f E | E h 0 : %.N.l.l.l.b.k f l.l.;.;.S d f ",
"K S K l.l.l.d K z.y.| g m S | | | =.;.l.0.;.U e p S k U l.b.=.d =.l.y.S j S E | | | ;.0.y.0.0.g 0 h S k 0.l.N.Z d 0.l.w.k k E ;."
};
