/* XPM */
static char *_bb8e4dbccb747ddf689c90428cbdbc2kooepaYGVcOJeUWS[] = {
/* columns rows colors chars-per-pixel */
"64 64 216 2 ",
"   c #1E1704",
".  c #1F1806",
"X  c #211603",
"o  c #221906",
"O  c #2B1E05",
"+  c #261E0A",
"@  c #2A1E0A",
"#  c #321D04",
"$  c #3C1F05",
"%  c #3E1F09",
"&  c #281F10",
"*  c #2A2106",
"=  c #27220D",
"-  c #2B210B",
";  c #272006",
":  c #322006",
">  c #3B2105",
",  c #36230B",
"<  c #3B220A",
"1  c #3C290D",
"2  c #37290F",
"3  c #2A2211",
"4  c #272510",
"5  c #362912",
"6  c #3B2B11",
"7  c #3D331C",
"8  c #3C3322",
"9  c #451F05",
"0  c #441E09",
"q  c #491F0B",
"w  c #442106",
"e  c #45210C",
"r  c #4A240B",
"t  c #422A0C",
"y  c #4B2A0E",
"u  c #482007",
"i  c #432C12",
"p  c #4B2E12",
"a  c #512A10",
"s  c #43311B",
"d  c #50341C",
"f  c #623E1D",
"g  c #403526",
"h  c #633F23",
"j  c #653E2B",
"k  c #6A3D2D",
"l  c #5F412A",
"z  c #644124",
"x  c #6B4426",
"c  c #64422B",
"v  c #6B442C",
"b  c #6B4634",
"n  c #754C36",
"m  c #7B4C36",
"M  c #7C4E39",
"N  c #7E513B",
"B  c #7F5C36",
"V  c #5B3E5C",
"C  c #633F5B",
"Z  c #553B6D",
"A  c #593B67",
"S  c #4B3C7D",
"D  c #483E78",
"F  c #543D73",
"G  c #553C7D",
"H  c #5C3E78",
"J  c #4D3E69",
"K  c #623E6C",
"L  c #5D415E",
"P  c #624255",
"I  c #63435D",
"U  c #6B4752",
"Y  c #5E4363",
"T  c #5A446A",
"R  c #514A7C",
"E  c #544374",
"W  c #5A527C",
"Q  c #624365",
"!  c #64426C",
"~  c #654E64",
"^  c #6F5768",
"/  c #625374",
"(  c #8C5C2F",
")  c #844D3A",
"_  c #894D3B",
"`  c #814837",
"'  c #8D5D34",
"]  c #82513D",
"[  c #865B3B",
"{  c #8C5E3C",
"}  c #845C37",
"|  c #915D36",
" . c #915E3B",
".. c #8D603C",
"X. c #8D6037",
"o. c #926236",
"O. c #865C41",
"+. c #8C5F41",
"@. c #925F40",
"#. c #8E6142",
"$. c #8B6348",
"%. c #946443",
"&. c #986644",
"*. c #9A6846",
"=. c #9A6D4E",
"-. c #936948",
";. c #93704D",
":. c #8C6C52",
">. c #936E53",
",. c #996C54",
"<. c #9D7254",
"1. c #9F7A5D",
"2. c #967459",
"3. c #8F7053",
"4. c #A06F4E",
"5. c #A3724E",
"6. c #A37553",
"7. c #AA7655",
"8. c #A57956",
"9. c #A97956",
"0. c #A5765B",
"q. c #AC7559",
"w. c #A47A5B",
"e. c #AA7A5A",
"r. c #B37855",
"t. c #9A7B62",
"y. c #A47D61",
"u. c #A97D64",
"i. c #B77F61",
"p. c #A47E7B",
"a. c #B4835E",
"s. c #9F826D",
"d. c #9E8567",
"f. c #A38265",
"g. c #AC8366",
"h. c #A4846C",
"j. c #AD846B",
"k. c #AC8A6C",
"l. c #AC8866",
"z. c #B38564",
"x. c #B38966",
"c. c #BB8A65",
"v. c #B4866A",
"b. c #BA866A",
"n. c #B48B6B",
"m. c #BA8C6D",
"M. c #B88665",
"N. c #B5916A",
"B. c #AB8571",
"V. c #AD8C74",
"C. c #AB857E",
"Z. c #AC8C7C",
"A. c #A48276",
"S. c #B48D72",
"D. c #BB8B76",
"F. c #BB8C72",
"G. c #B58A7A",
"H. c #BA8C7A",
"J. c #B98672",
"K. c #AE9074",
"L. c #AE9078",
"P. c #B59075",
"I. c #BD9274",
"U. c #B3947C",
"Y. c #BD957C",
"T. c #BB987E",
"R. c #C18B6B",
"E. c #C28A65",
"W. c #C08B72",
"Q. c #C39376",
"!. c #C2947A",
"~. c #C2987D",
"^. c #C89777",
"/. c #4D3C84",
"(. c #4B3D88",
"). c #533C84",
"_. c #593B82",
"`. c #513A89",
"'. c #4C418B",
"]. c #4B4082",
"[. c #584182",
"{. c #5A5683",
"}. c #AC8683",
"|. c #AD8C81",
" X c #A3858C",
".X c #AB848B",
"XX c #A68688",
"oX c #BA8C87",
"OX c #BC9682",
"+X c #BC9984",
"@X c #B69B89",
"#X c #BB9E8C",
"$X c #B59687",
"%X c #A88591",
"&X c #B79891",
"*X c #B68F90",
"=X c #B8A093",
"-X c #C29681",
";X c #C49982",
":X c #CA9986",
">X c #EEDCDD",
",X c #FBE1CB",
"<X c #FDEDDD",
"1X c #FCE5D8",
"2X c #FFF0DD",
"3X c #FEEDE3",
"4X c #FAE9E9",
"5X c #FEF1E6",
"6X c #FEF3EA",
"7X c #FFFDEE",
"8X c #ECE9F8",
"9X c #EEF2FE",
"0X c #FFFCF5",
"qX c #FDFEFD",
"wX c #F9F7FC",
"eX c #F3EFFF",
/* pixels */
"* * * * * * * O @ @ @ @ @ @ @ @ @ @ - - - - = = o o . . . . o o @ @ @ - - @ * + - - - - - - - - - * * * * * * * * * - O * * O 7 ",
"* * * * * * * O @ @ @ @ @ @ @ @ @ @ - - - - = = o o . . . . o o @ @ @ - - @ * + - - - - - - - - * * * * * * * * * O * O * * O 7 ",
"* * * * * * * O @ @ @ @ @ @ @ @ @ @ - - - - - - o o . . . . o o @ @ @ @ @ @ @ @ - - - - - - - - * * * * * * * * * O - * * * O 7 ",
"* * * * * * * O @ @ @ @ @ @ @ @ @ @ - - - - - - o o . . . . o o @ @ @ @ @ @ @ @ - - - - - - - * * * = = * * * * * O - * * * O 7 ",
"* * * * * * @ @ @ @ @ @ @ @ @ @ @ @ - - - - - - o o . . . . o o @ @ O @ @ @ @ O * * * * * * * * * * * * * * * * * O * O * * O 7 ",
"* * * * * * @ @ @ @ @ @ @ @ @ @ @ @ - - - - * * o o . . . . o o @ @ O O @ @ O O * * * * * * * * O * * * * * * * * O * O * * O 7 ",
"* * * * * * @ @ @ @ @ @ @ @ @ @ @ @ - - - - * * o o . . . . o o @ O @ @ @ @ @ O * * * * @ @ @ * O O O O O O O O * O * O * * @ 7 ",
"* * * * * * @ @ @ @ @ @ @ @ @ @ @ @ - - - - * * o o . . . . o o @ O @ @ @ @ @ O * @ @ @ @ * # * O O O O O O O O * O * O * * @ 7 ",
"* * * * - - - - o o o o o o o o @ @ @ @ @ @ + + o o . . . . . o @ @ @ @ O O O @ 5 6 6 6 6 1 1 1 1 1 6 6 6 6 5 5 * O - @ * * @ 7 ",
"* * * * - - - - o o o o o o o o - * - - - - - - o o o o o o o o @ * - - * * : : 6 6 6 6 6 6 6 6 6 6 6 6 6 6 6 5 * O - @ * * @ 7 ",
"- - - - - - - - X X X X X X X X @ * - - - - - - o o . . . . o o @ @ * @ O O O : 6 6 6 6 6 1 1 1 6 6 6 6 6 6 6 6 * O - @ - - + 7 ",
"- - - - - - - - o X X X X X X o @ @ - - - - - - o o . . . . . o @ @ * * O O O : 6 1 1 1 1 1 1 1 1 6 6 6 6 6 6 6 * O - @ - - + 7 ",
"- - - - - - - - + o o o o o o o * - - - - - - - o o o . . o o o - * * * * * : : 6 6 6 t t t t 1 i i 6 6 6 6 6 6 * @ - @ - - + 8 ",
"- - - - - - - - X X X X X X X X @ @ @ @ @ @ + @ . . .   . . . . @ @ * * @ O O : 1 1 1 1 1 1 1 1 1 1 6 6 6 6 6 2 * @ - @ - - + 8 ",
"& & & & - - - - X X X X X X X X @ @ - - - - * * o o . . . . o o @ @ @ @ O O O : 1 1 1 1 t t t 1 1 1 1 1 1 1 1 2 * @ - @ - - @ 8 ",
"3 3 & - @ @ @ @ @ @ O O # # # # , , , , , , , , @ @ @ @ @ @ @ @ , , < , , < < < p p p p p p p p y y y y i i i i @ @ - @ - - + 8 ",
"3 + + @ @ O # , t.h.h.f.g.g.y.g.k.k.k.k.k.k.k.k.L.V.L.L.L.V.V.V.B.B.B.j.j.j.j.j.j.j.j.j.j.j.j.g.6.<.6.6.<.0.1.:.< O * @ 3 & + 8 ",
"3 - - - * O # < h.S.S.x.m.M.M.m.m.m.S.m.m.P.P.P.Y.Y.Y.T.T.Y.Y.Y.D.D.G.D.D.D.D.D.D.D.D.S.S.F.F.m.9.q.q.q.0.u.y.>.< # - - 3 3 @ g ",
"4 = - - * O # < h.S.S.n.m.m.x.m.m.m.m.m.S.S.I.P.~.~.~.~.~.~.~.~.D.D.H.D.D.D.D.D.D.D.D.D.F.F.S.m.9.9.q.e.0.u.y.>.< O * + - @ + 8 ",
"4 = = * * O # > d.V.k.l.n.x.z.x.m.m.m.m.m.m.m.m.Y.Y.Y.Y.Y.Y.Y.Y.F.F.F.F.F.F.F.F.F.S.S.S.m.m.m.m.8.7.8.8.6.w.1.:.< O * + - - + 8 ",
"3 = - - * * : > d.V.k.k.n.n.x.x.m.m.m.m.m.m.m.m.!.!.!.!.!.!.!.!.F.F.F.F.D.F.F.S.F.F.F.F.F.m.m.m.8.8.e.8.8.y.w.:.< O * * - - @ g ",
"* ; O * O O # > d.K.k.k.n.n.x.n.m.m.m.m.m.m.m.m.!.!.!.!.!.!.!.!.S.S.S.S.S.S.S.S.S.S.S.m.m.m.m.m.8.8.e.8.8.w.y.3.> O * O * O O s ",
"* O O # : # # > f.k.k.k.n.x.l.x.m.m.m.m.m.m.m.m.Q.Q.Q.Q.Q.Q.Q.Q.m.m.m.m.m.m.m.m.m.m.m.m.m.m.m.x.8.8.8.8.8.e.w.:.$ O O O O O O s ",
"1 < < < < > w t f.n.n.k.n.n.z.x.I.I.m.m.m.m.F.F.Q.Q.Q.Q.Q.Q.Q.Q.m.m.m.m.m.m.m.m.m.m.m.m.m.m.m.m.8.8.e.e.0.e.w.>.w $ > > < < $ d ",
"h.h.B.h.h.j.j.j.S.S.m.m.m.m.m.m.!.!.!.!.!.!.!.!.F.F.m.m.m.m.m.m.x.x.x.x.x.x.x.x.m.m.m.m.m.m.m.m.8.7.7.7.0.0.0.0.<.2.2.2.2.2.2.y.",
"S.S.D.S.S.S.S.S.S.S.S.S.m.m.m.m.!.!.!.!.!.!.!.!.F.F.F.m.m.m.m.m.x.x.x.x.x.x.x.x.m.n.x.n.m.m.m.x.e.e.q.q.q.q.q.e.8.y.1.1.y.w.w.j.",
"D.D.D.D.D.S.S.S.F.m.m.m.m.m.m.m.!.!.~.!.!.!.!.!.F.m.m.m.m.m.m.m.x.x.x.x.x.x.x.x.m.m.m.m.S.S.m.m.0.0.q.q.q.q.q.q.8.e.w.w.e.w.e.z.",
"F.F.F.F.F.F.F.F.m.m.m.m.m.m.m.m.!.Y.!.!.!.!.!.!.F.F.F.m.m.m.m.m.x.x.x.x.x.x.x.x.m.m.m.m.S.S.S.m.0.0.0.q.q.q.q.q.0.e.8.8.e.7.0.i.",
"F.F.F.F.F.F.S.F.S.S.S.S.m.m.m.S.Y.Y.Y.Y.Y.~.~.~.F.F.F.F.F.F.F.m.n.x.x.x.n.n.n.n.m.m.m.m.S.S.n.m.8.e.e.q.q.q.q.q.e.e.8.8.e.7.q.i.",
"m.m.m.m.m.m.m.m.m.m.m.m.m.m.m.S.~.-X-X-X-X-X-X~.F.F.F.F.F.F.J.m.n.x.x.x.n.n.n.n.I.I.S.S.S.S.S.S.w.8.0.0.q.q.q.7.8.e.8.8.e.7.q.a.",
"m.m.m.m.m.m.m.m.m.m.m.m.n.n.m.S.Y.OXOXOXOXY.Y.!.F.F.F.F.F.F.F.F.v.n.n.n.n.n.n.n.P.P.S.S.D.D.S.S.w.w.w.0.0.0.7.7.6.8.8.6.8.7.7.r.",
"m.m.m.m.m.S.S.S.U.U.U.U.U.U.U.$X$X*X*X*X*X*X*XoXG.D.F.m.m.m.F.F.v.n.x.x.x.x.n.S.V.C.}.}.}.}.C.C.h.h.h.h.u.u.u.f.w.w.8.8.e.8.9.a.",
"!.!.Q.Q.Q.Y.Y.#X1X5X5X6X5X6X6X>X~ T ! H ! ! C U C.V.n.x.x.x.x.v.S.S.n.x.N.N.S.C.U I ! K ! ! L ^ 4X6X4X6X3X3X<X,XT.Y.I.I.I.I.Q.~.",
"~.!.!.!.!.Y.+X#X6X0XqXqXqXqXqX8XE G _.).G H A I XXV.k.x.a.z.M.z.m.m.m.x.x.N.V.XXI A H _._.G F / wXqXqXqXqXqX0X5X@XT.Y.!.Q.Q.~.;X",
";X~.~.!.Y.T.+X=X5X0XqXqXqXqXqX8XR /././.).G A L  XZ.n.x.z.M.m.v.F.F.m.c.N.P.Z. XV Z _.).).).D W eXqXqXqXqX0X0X<X@X+XY.!.!.!.-X:X",
"+XY.Y.Y.Y.T.@X&X6XqXqXqXqXqXqX8XR (.'.(.`.[.Z Q  XZ.S.x.x.M.M.M.F.D.m.m.N.P.|. XY F _.`.`.'.S {.9XqXqXqXqXqX0X3X@XOXY.~.!.!.-X:X",
"+XOXY.OXY.T.@X=X6XqXqXqXqXqXqX8XR (.'.(./.[.Z Y  XC.V.j.z.M.M.v.J.F.m.x.n.S.|. XY F ).(.'.'.D {.9XqXqXqXqXqX0X3X@XOXY.~.!.!.-X:X",
"+X+XOXT.OXOX@X=X6X0XqXqXqXqXqX8XR D ].S S F A L  X|.V.n.v.x.b.b.F.D.F.m.S.U.|.%XV Z G S /.S D W 9XqXqXqXqX0X0X<X@X+XY.!.!.!.:X:X",
"+XY.Y.Y.Y.T.+X#X5X0XqXqXqXqX0X4XT J E F Z T V P XX|.V.n.v.m.m.v.D.D.S.m.S.P.|.XXP A Z F E E J / wX0X0X0X0X7X7X2X+XY.!.!.Q.!.-X:X",
"Y.I.I.I.I.P.Y.+X1X3X3X6X3X5X5X>X~ L Y Y I I P U p.B.h.g.g.g.j.j.v.S.n.k.k.k.V.A.U P Q Q Q Y L ^ 1X3X<X<X<X<X<X,XT.I.I.Q.Q.I.!.;X",
"#.#.%.%.%.%.$.$.+X#X=X=X#X#X#X#X}..X.X.X.X.X}.C.b v c x x x x v v v v x x x v b p..X.X%X.X.X.XC.h.h.s.s.s.s.f.y.#.....X.%.#.O.<.",
"+.+. . . . . .%.Y.OX$X+X$X$XOXOXG.G.G.G.H.G.G.S.v z h z z z z c c h h z z f h v G.oXoXoXoXoXH.G.0.0.0.y.t.1.w.<.X.' o.' X...} ;.",
"{ {  . .| |  . .Y.Y.OX+XOXY.~.!.m.R.m.m.m.m.m.m.x h h h z h h z c l z z z f h x v.D.D.J.J.F.b.b.q.q.7.0.0.0.8.5.' ( ' ( ' } B ;.",
"{ {  . .| |  .@.!.~.;X;X~.~.!.^.c.c.c.c.c.M.M.x.x z h z z z z c c c c c z z x x m.S.W.W.R.R.R.E.r.r.q.q.e.e.8.7.' ( o.( X...} ;.",
"+.#. . . . . .%.I.!.Y.~.!.!.Q.Q.c.c.c.c.c.c.x.x.x z h c c c c c c l c c z h z x m.S.F.F.m.R.R.E.r.7.7.9.8.8.7.5.| ( o.' X...[ ;.",
"O.O.+.{  . . .#.I.Y.Y.~.!.!.Q.Q.m.m.m.m.m.N.n.m.x j j j c j j c c j l c c h z x v.S.S.m.m.m.m.M.9.9.9.8.8.8.8.5.' ' | ' { { [ >.",
"O.$.O.O.{ { +.#.Y.Y.OX-X-X~.!.!.S.S.m.m.m.n.n.S.v j j j j j j c c c c c c j c v S.H.Y.H.H.D.D.S.9.9.8.w.w.w.8.8.' ' | ' { { [ ,.",
"$.$.#.+.{ { +.#.Y.Y.OXOX!.!.!.!.k.k.k.k.k.k.k.j.v k k k k k k k k j j k j j j v j.B.V.B.B.j.B.j.8.8.8.8.8.8.8.6.{ '  .{  .{ [ ,.",
"{ { { { { { +.+.v.Y.F.D.D.D.D.j.p t e t t w r y m M ` ` ` ` ` m M ) ` m m M M n a y r y r r p a 6.9.9.9.9.e.8.6...[ { { +.+.[ =.",
"{ { { { { { +.+.v.D.F.F.D.F.D.j.w $ > > > $ 9 u M ) _ _ _ _ _ _ _ _ _ ) ) ) M m q 9 9 w w 0 w r 6.7.9.9.9.9.7.6...{ +.{ #.#.} =.",
"{ { { { { { +.+.v.F.m.m.F.F.D.j.w > $ > > $ $ 9 M ) _ _ _ _ _ _ _ _ ) _ ) ] ] m q 9 9 w w w e r 6.7.9.9.9.e.7.6.#.{ ..{ #.#.[ =.",
"{ { { { { { +.+.v.F.F.F.D.F.D.j.r w > > > > w u m ) _ _ _ _ _ ] _ ] ) ) ) ] N m r u u u w w e y 6.7.9.9.9.e.7.6.%.{ #.{ #.#.{ =.",
"{ { { { { { { { v.F.m.m.F.F.D.j.w > > > > $ $ w M ) ) ) ) ) ] ] ) ] ) ) ) ] N m u 0 0 w w w w y 6.7.e.7.9.e.8.6.%.{ #.{ #.#.{ =.",
"{ { { { { { { { v.I.m.m.F.F.D.j.w > $ > > > $ w M M ] ) ) ) ] ] ] ] ] M ] ] N M u 0 0 w w w w y 6.7.7.7.7.9.8.6.#.{ ..{ #...[ =.",
"{ { { { { { { { z.m.m.m.m.m.S.g.r w > > > > > w M M ] ] M M M N M ] N M M N N n r u w r w w r y 6.8.7.7.8.8.8.6...{ { { ....[ =.",
"{ { { { { { { { z.m.x.m.m.v.m.u.w $ $ $ > # $ w n M M M M n n n M M M m m M M n r 0 0 w w 0 w y 6.8.9.7.8.8.8.6...[ { { ..{ [ =.",
"{ { { { { { { { { ....{ { #.{ [ w w $ > < < < $ 0 9 0 0 0 0 0 0 q q q q q q q q r 0 w e e w e r [ { { ..{ { { { %.-.%.%.&.%.-.4.",
"{ { { { { { { { { ..{ { { ..{ } w w $ > < < < $ 0 0 0 0 0 0 % % w q q q q q q w e 0 w e e w e r [ { { ..{ { { { %.-.%.%.&.%.%.4.",
"{ { { { { { { { { { { { { { { } w w % > < < < $ % 0 0 0 0 < < < w w q w e e e e e w w e e w e r [ { { ..{ { { { %.-.-.-.&.%.%.5.",
"{ { { { { { { { { { { { { { { } w w $ > < < < > < % 0 0 < < < < e w w w e e e e e w e e e w e r O.{ { { { { { { %.-.%.%.*.-.%.5.",
"{ { { { { { { { X.X.X.{ { X.X.} w e % < < , < < % % % % < < < < e e e e e e e e e 0 e e e 0 e r O.{ +.#.{ { { { %.&.-.-.*.%.&.5.",
"{ { { { { { { { X.X.X.{ X...X.[ w e % < < , < < % % % % < < , < e e e e e e e e e 0 e e r 0 e r O.{ +.#.{ { { { %.*.-.-.*.%.&.5.",
"{ { { { ' ' ' ' X.X.X.' ' X.' } w w % < < , < < % < < < < , , , < e e e e e e e e 0 e e r 0 e r O.{ +.#.O.{ { { -.&.%.%.*.&.&.5.",
"{ { { { ' ' ' ' ' X.{ ' ' X.' } w e % < , , < < < < < < < , , , < e e e e e e e e 0 e e e 0 e r O.{ +.#.+.{ { { -.*.%.%.*.&.&.5."
};
