/* XPM */
static char *_0b2f52550844c7cae6fdfb656ba9afe[] = {
/* columns rows colors chars-per-pixel */
"64 64 127 2 ",
"   c #606060",
".  c gray38",
"X  c #626262",
"o  c #646464",
"O  c #656565",
"+  c gray40",
"@  c #676767",
"#  c #686868",
"$  c DimGray",
"%  c #6A6A6A",
"&  c gray42",
"*  c #6C6C6C",
"=  c #6D6D6D",
"-  c gray43",
";  c #6F6F6F",
":  c gray44",
">  c #717171",
",  c #727272",
"<  c gray45",
"1  c #747474",
"2  c gray46",
"3  c #767676",
"4  c #777777",
"5  c gray47",
"6  c #797979",
"7  c gray48",
"8  c #7B7B7B",
"9  c gray49",
"0  c #7E7E7E",
"q  c gray50",
"w  c #808080",
"e  c #818181",
"r  c gray51",
"t  c #838383",
"y  c #848484",
"u  c gray52",
"i  c #868686",
"p  c gray53",
"a  c #888888",
"s  c #898989",
"d  c gray54",
"f  c #8B8B8B",
"g  c gray55",
"h  c #8D8D8D",
"j  c #8E8E8E",
"k  c gray56",
"l  c #909090",
"z  c gray57",
"x  c #929292",
"c  c #939393",
"v  c gray58",
"b  c #959595",
"n  c gray59",
"m  c #979797",
"M  c #989898",
"N  c gray60",
"B  c #9A9A9A",
"V  c #9B9B9B",
"C  c gray61",
"Z  c #9D9D9D",
"A  c gray62",
"S  c #9F9F9F",
"D  c #A0A0A0",
"F  c gray63",
"G  c #A2A2A2",
"H  c gray64",
"J  c #A4A4A4",
"K  c #A5A5A5",
"L  c gray65",
"P  c #A7A7A7",
"I  c gray66",
"U  c #A9A9A9",
"Y  c #AAAAAA",
"T  c gray67",
"R  c #ACACAC",
"E  c gray68",
"W  c #AEAEAE",
"Q  c #AFAFAF",
"!  c gray69",
"~  c #B1B1B1",
"^  c #B2B2B2",
"/  c gray70",
"(  c #B4B4B4",
")  c gray71",
"_  c #B6B6B6",
"`  c #B7B7B7",
"'  c gray72",
"]  c #B9B9B9",
"[  c gray73",
"{  c #BBBBBB",
"}  c #BCBCBC",
"|  c gray74",
" . c gray",
".. c gray75",
"X. c #C0C0C0",
"o. c #C1C1C1",
"O. c gray76",
"+. c #C3C3C3",
"@. c gray77",
"#. c #C5C5C5",
"$. c #C6C6C6",
"%. c gray78",
"&. c gray79",
"*. c #CACACA",
"=. c #CBCBCB",
"-. c gray80",
";. c #CDCDCD",
":. c #CECECE",
">. c gray81",
",. c #D0D0D0",
"<. c gray82",
"1. c #D2D2D2",
"2. c LightGray",
"3. c gray83",
"4. c #D5D5D5",
"5. c gray84",
"6. c #D7D7D7",
"7. c #D8D8D8",
"8. c gray85",
"9. c #DADADA",
"0. c gray86",
"q. c gainsboro",
"w. c #DDDDDD",
"e. c #DFDFDF",
"r. c gray88",
"t. c #E1E1E1",
"y. c #E2E2E2",
/* pixels */
"r.7.7.7.1.1.1.1.7.7.7.7.3.1.1.1.) ! ! ! 1.7.7.7.1.1.1.1.1.1.1.1.1.1.1.1.1.1.1.1.1.1.1.1.7.7.7.7.1.1.1.1.X.} X.} ! R R R d e e e ",
"r.7.7.7.1.1.1.1.7.7.7.7.1.1.1.1.) ! ! ! 1.q.7.7.1.1.1.1.1.1.1.1.1.1.1.1.1.1.1.1.1.1.1.1.7.7.7.7.1.1.1.1.X.} } } R R R R d 0 e e ",
"r.7.7.7.3.1.3.3.7.q.7.7.1.1.3.1.) ! ! ! 1.q.7.7.3.1.1.1.1.1.1.1.1.3.3.3.1.1.1.1.1.1.1.1.7.q.q.7.1.1.1.1.X.} } } ! R R R d 0 e e ",
"r.7.7.7.1.1.>.1.3.7.7.3.1.1.1.>.) R ! ! 1.7.3.7.1.1.1.1.1.1.1.>.>.>.>.>.>.>.>.>.>.>.>.>.3.3.3.3.>.>.>.>.X.} } } R Y Y R d e e e ",
"r.7.7.7.{ ! ) ) ) ) ) ) ) ) ) ) J D D D ! ) ) ) ) ) ) ) ) ) ) ) Y J J J R ! ! ! ! ! ! ! Y J J Y R ! ! ! ! R R R J D D J g d g g ",
"r.7.7.7.{ ! ! ! ! ! ! ! ! ! ! ! J D D D R ! ! ! ! ! ! ! ! ! ! ! D D D D Y R R R R R R R D D D D Y R R R R R R R J D D D l g g g ",
"r.7.7.7.{ ! ! ! ! ! ! ! ! ! ! ! J D D D ! ) ! ! ! ! ! ! ! ! ! ! J D D D Y R R R R R R R D D D D Y R R R R R R R D D D D l g g g ",
"r.7.7.7.{ ! ! ! ! ! ! ! ! ! ! ! J J D J R ! ! ! ! ! ! ! ! ! ! ! J D D D R R R R R R R R J D D D Y R R R R R R Y D D D D g d d d ",
"q.1.1.1.R D J D D D D D D J D J ! ! ! ! J J J J R R R R R R R R R R R Y { } } { R R R R R R R Y R R R R J D D D l g g g > # # # ",
"7.1.1.1.R D D D D D D D D D D D ! ! ! ! J D D D R R R R R R R R R R R R } } } } R R R R R R R R R R R R J D D D g g g g * @ @ @ ",
"7.1.1.1.R D D D D D D D D D D D ! ! ! ! J D D D R R R R R R R R R R R R } X.} } R R R R R R R R R R R R D D D D l g g g * @ # # ",
"7.1.1.1.Y Z D D J J J J J J J J ! ! ! ! J J J J Y R R R R R R R R R R R { } } } R Y R R R R R R R R R R J D J D l g g g * @ # # ",
"r.7.7.7.Z g g g R ! ! ! { } } } ) ! ! ! ! ! ! ! J D J J D D D D J J J D J J J J D J J J Y R R R R R R R { } } { Z N N N * @ # # ",
"r.7.7.7.Z d g g R ) ! ! } X.X.} ) ! ! ! ! ! ! ! J D D D D D D D D D D D D D D D D D D J Y R R R R R R R } X.X.} Z N N N > @ # # ",
"r.7.7.7.Z d g g R ! ! ! } X.X.} ) ! ! ! ! ! ! ! J D D D D D D D D D D D D D D D D D D D R R R R R R R R } X.} } Z N N N > @ # # ",
"r.7.7.7.Z g g g R ! ! ! { } } } ! ! ! ! ! ! ! ! J J J J J J J J J J J J J J J J J J J J Y Y Y Y R R R R } X.} } Z N N N > @ # # ",
"r.7.7.7.Y Z Z Z D D D D D D D D D D D D D D D D R ! ! ! ! ! ! ! ! ! ! ! ! ! ! ! ! ! ! ! m g l l Y R R R } X.X.} J D D D > @ # # ",
"r.7.7.7.Y Z D D D D Z Z Z D D D D D D D D D D D ! ! ! ! ! ! ! ! ! ! ! ! ! ! ! ! ! ! ! ! l g g g Y R R R } X.X.} J D D D > @ # # ",
"r.7.7.7.Y Z Z Z Z Z Z Z Z D D D Z Z Z Z D D D D R ! ! ! ! ! ! ! ! ! ! ! ! ! ! ! ! ! ! ) l d g g Y R R R } X.X.} J D D D > @ # # ",
"r.7.7.7.R Z D D D D D D D D D D D D D D Z Z Z Z R ! ! ! ! ! ! ! ! ! ! ! ! ! ! ! ! ! ! ! m g g l Y R R R { } } { J D D D > @ # # ",
"r.7.7.7.{ ! ! ! ! ! ! ! ! ! ! ! { } } } m g g g Y R R R R R R R J J J J D D D D N N N N Y R R R J D D D J J J J l g g g * @ # # ",
"r.7.7.7.{ ! ! ! ! ! ! ! ! ! ! ! } X.X.X.m d g g Y R R R R R R R J D D D D D D D N N N N R ) ! ! D D D D D D D D g g g d * @ # # ",
"r.7.7.7.{ ! ! ! ! ! ! ! ! ! ! ! } X.X.X.m d g g Y ! R R R R R R J D D D D D D D N N N N R ) ! ! J D D D D D D D g g g d * @ # # ",
"r.7.7.7.{ ! ! ! ! ! ! ! ! ! ! ! { } } } m d g g J R Y Y Y Y Y Y D D D D D D D D N N N N Y R R R J D D D J J J J l g l g * @ # # ",
"q.1.1.1.R D D J ! ! ! ! J D J D l g g l g g g g g l g l g g g l m N N N N N N N N N N N d i i i g g g g ) } } } J Z D Z > @ # # ",
"q.1.1.1.Y D D D ! ! ! ! J D D D g d g g g g g g g g g g g g g g m N N N N N N N N N N m i e e e g g g g ) X.} } J D D D > @ # # ",
"q.3.3.1.Y D D D ! ) ! ! J D J D l g g g g g g g g g g g g g g g m N N N N N N N N N N N i e e e g g g g { X.X.} J D D D > @ # # ",
"3.&.&.&.J Z Z Z Y R Y Y D Z Z Z g d d d d d d d d d d d d d d d l m m m m m m m m m m m e 0 0 e d d d d ! { { ) D Z Z Z > @ # # ",
"l * > > * * * * * * * * * * * * # * # * # # # # # # # # * * * # * * * * * * * * 1 7 7 7 1 1 1 1 * # # # * > * * * * * * # # # # ",
"d   @ @ @ @ # # @ @ @ @ @ @ @ @ # # @ # @ @ @ @ @ @ @ @ @ # @ @ @ @ @ @ @ @ @ # > 1 1 1 1 1 1 1 # @ @ @ @ @ @ @ @ @ @ @ # # # # ",
"d   @ @ @ @ @ @ @ @ @ @ @ @ @ @ @ @ @ @ @ @ @ @ @ @ @ @ @ # # # @ @ @ @ @ @ @ @ > 1 1 1 1 1 1 1 # @ @ @ @ @ @ @ @ @ @ @ @ @ @ @ ",
"l * > > > > > > > > > > > > > > > > > > > > > > > > > > # # @ # > > > > > > > > 7 0 0 0 0 0 0 0 > > > > > > > > > > > > > > > > ",
"3.&.&.&.>.>.&.&.&.&.&.&.&.&.&.&.1.1.1.1.1.1.1.1.>.&.>.>.7 @ # * #.3.1.1.>.&.&.&.&.&.&.>.1.1.1.3.1.1.1.1.>.&.&.&.1.1.1.1.>.&.&.&.",
"q.1.1.3.3.3.3.3.3.3.3.3.3.3.3.3.7.7.7.7.q.q.q.q.3.3.1.3.7 @ # * >.q.7.q.3.1.3.3.1.1.1.1.7.7.7.7.7.q.q.q.3.1.1.3.7.q.q.7.3.1.3.3.",
"7.1.1.1.1.1.1.3.1.1.1.1.1.1.1.1.7.7.q.q.7.7.7.7.3.1.1.1.7 @ # * >.q.7.7.1.1.1.3.1.1.1.1.7.7.7.7.7.7.7.7.3.1.1.3.7.7.7.7.3.1.1.1.",
"7.>.>.>.>.>.>.>.>.>.>.>.>.>.>.>.3.3.3.3.3.3.3.3.>.>.>.>.7 @ # * >.q.7.7.1.>.1.>.>.>.>.>.1.3.3.3.3.3.3.3.>.>.>.>.1.3.3.3.>.>.>.>.",
"{ D J J J J J J ! ) ) ) N l l m J Y J Y ! ) ) ) m l l l * @ # * #.3.1.1.{ ! ) ) Y Y Y Y J J Y J m m m m l l l l l l m m l m l l ",
") Z D D D D D D R ! ! ! l d g g D D D D R ! ! R l d g d * @ # * #.3.1.1.) R ! ! J D D D D D D D g g g g g d g g d g g g g g g g ",
") Z D D D D D D ! ! ! ! l g g g D D D D ! ! ! R l d g g * @ @ * #.3.1.1.) ! ! ! J D D D D D D D l g g g g g g g g g g g g g g g ",
"{ D J J J J J J ! ! ! ! l g g g D D D D ! ) ! ! l g g g * @ @ * X.1.>.>.) R ! R J D D D D D D D l g g g g g l l g g g g g g g g ",
"&.{ } } } } } } J D J J l g g g D D D D { X.} } N m m m > @ @ * ! } } } Y D J D D D D D D D D D D D D D R ! R R l g g g g g g g ",
">.} } X.} } X.} J D D D l g g g D D D D { X.} } Z m N m > @ @ # ! } } } J D D D D D D D D D D D D D D D ! ) ) ! l g g g g g g g ",
">.} X.X.X.X.} } J D D D g d g g D D D D { X.} } Z m N m > @ @ # ! } { } J D D D D D D D D D J D D D D D ! ! ! ! l g g g g g g g ",
"&.} X.} } } } } J J J J l g l l D J J J ) } } { Z m m m > @ @ # ! } } } Y D J J D D D D D D D D D D D D ! ! ! ! l g g g g g g g ",
"X.! ) ! ) ) ) ! ! ! ! ! { { { { } } } } Y D J D l g g g * # @ * &.7.3.3.X.{ } { m g g g l l g l D J D D D J J J D D D D g g g g ",
"X.R ! ! ! ! ! ! ! ! ! ! } X.X.X.X.} } X.J D D D g d g g * @ @ * >.q.7.7.#.} X.} l g g g g g g g Z J D D D D D D D D D D l g g g ",
"X.! ! ! ! ! ! ! ! ! ! ! } } } X.} X.X.X.J D D D l g g g * @ @ * >.q.7.7.#.} X.} l g g g g g g g D J D D D D D D D D D D l g g g ",
"X.R ! ! ! ! ! ! ! ! R R { X.X.} X.X.} X.Y D D D g d g d * # @ * &.7.3.7.X.{ } { m g g g g g g l Z D D D D D D D D D D D l g g g ",
"{ D D D D D D D J J D D { X.} } } } X.X.Y D D D i e e e * @ @ # ! } } } N g g l Z D D D D D D D l g g g g g g g g g g g g g g g ",
"{ Z D D D D D D D D D D { X.} X.} } X.X.Y D D D i 0 e e # @ @ # ! } { { m d g g Z D D D D D D D l g g g g g g g g g g g g g g g ",
"{ Z D D D D D D D D D D { X.X.} } X.X.X.J D D D i 0 e e # @ @ # ! } { { m d g g Z D D D D D D D l g g g g g g g g g g g g g g g ",
"{ D J D J J J J D D D D { } } } } } } } J Z D Z i 0 0 0 # @ @ # ) X.} } N l l l D J J J D D D D l g g g g g g g g g g g g g g g ",
"X.R ! ! ! ! ! ! J D D D J J J J J J J J l g l g 7 1 1 1 # # @ * &.7.3.3.} { { { } } } } Y D D D D D D D l g g g Z D D Z i e e e ",
"X.! ! ! ! ! ! ! J D D D D D D D D D D D l g g g 7 1 1 1 # @ @ * >.q.7.7.#.} X.X.} X.} X.Y D D D D D D D l g g g Z D D D i e e e ",
"X.! ) ) ) ! ! ! J D D D D D D D D D D D l g g g 1 1 1 1 # # @ * >.q.7.7.#.} X.X.} } } } Y D D D D D D D l g g g D J D D i 0 e e ",
"} R ! R R ! R R D Z Z Z D D D D Z Z Z Z l g g g 0 7 7 7 # # @ # &.7.3.3.} { { { { { { } J D D Z D D D D g g g g Z Z Z Z i e e e ",
"Y g m m l l l l l l l l m N N N i e e e d g g g Z Z Z D > @ # # ) X.} } g e i i D J J J l g g g g g g g d d d d i e e e e e e e ",
"Y g l l l l l l l l l l m N N m i e e e d g g g D D J J > @ # # ! } { { d 0 e e Z D D D l g g g g g g g d d d d e e e e e e e e ",
"Y g l l l l l l l l l l m N N N i e e e d g g g D D J D > @ @ # ! } } } d 0 e e Z J D D l g g g g g g g g g d d e e e e e e e e ",
"J d g g g g g g g g g g l m m l e 0 0 0 i d d d N Z Z Z > @ @ # Y ) ) ! d 0 0 e N Z Z Z g d d d d i i i i i i i e 0 0 0 0 0 0 0 ",
"g @ * # # # # * * * # # * * * # # # # # # # # # * * * * # # # @ * * * * # # # # 7 7 7 7 * * # # # # # # # # # # # # # # # # # # ",
"d   # @ @ @ @ @ # # @ @ @ @ @ @ # @ @ @ @ @ @ @ @ # @ @ # # # # @ @ # # @ # # # > 1 1 1 # # @ @ @ @ @ @ @ @ @ # # # # # # # # # ",
"d   # # # # # # # # # # # # # # # # # # # # # # # # # # # # # # # # # # # # # # 1 1 1 1 # # # # # # # # # # # # # # # # # # # # ",
"d   # # # # # # # # # # # # # # # # # # # # # # # # # # # # # # # # # # # # # # 1 1 1 1 # # # # # # # # # # # # # # # # # # # # "
};
